<svg width="32" height="33" fill="none" xmlns="http://www.w3.org/2000/svg"><g fill-rule="evenodd" clip-rule="evenodd" fill="#FF4848"><path d="M16 8.834a1 1 0 011 1v8a1 1 0 11-2 0v-8a1 1 0 011-1zm.682 13.588a1 1 0 01.075 1.412l-.014.015a1 1 0 01-1.486-1.338l.013-.015a1 1 0 011.412-.074z"/><path d="M16 4.167C9.187 4.167 3.665 9.688 3.665 16.5c0 6.811 5.522 12.333 12.333 12.333 6.812 0 12.334-5.522 12.334-12.333 0-6.812-5.522-12.334-12.334-12.334zM1.665 16.5c0-7.916 6.417-14.334 14.333-14.334S30.333 8.584 30.333 16.5c0 7.916-6.418 14.333-14.334 14.333-7.916 0-14.333-6.417-14.333-14.333z"/></g></svg>