<svg width="32" height="33" viewBox="0 0 32 33" fill="none" xmlns="http://www.w3.org/2000/svg">
<g id="warning-circle">
<path id="Vector (Stroke)" fill-rule="evenodd" clip-rule="evenodd" d="M16 8.8335C16.5523 8.8335 17 9.28121 17 9.8335V17.8335C17 18.3858 16.5523 18.8335 16 18.8335C15.4477 18.8335 15 18.3858 15 17.8335V9.8335C15 9.28121 15.4477 8.8335 16 8.8335Z" fill="#FF4848"/>
<path id="Vector (Stroke)_2" fill-rule="evenodd" clip-rule="evenodd" d="M16.6823 22.4218C17.0928 22.7912 17.1261 23.4235 16.7566 23.834L16.7433 23.8488C16.3738 24.2593 15.7416 24.2926 15.331 23.9232C14.9205 23.5537 14.8873 22.9214 15.2567 22.5109L15.27 22.4961C15.6395 22.0856 16.2718 22.0523 16.6823 22.4218Z" fill="#FF4848"/>
<path id="Vector (Stroke)_3" fill-rule="evenodd" clip-rule="evenodd" d="M15.9993 4.1665C9.18784 4.1665 3.66602 9.68833 3.66602 16.4998C3.66602 23.3113 9.18784 28.8332 15.9993 28.8332C22.8109 28.8332 28.3327 23.3113 28.3327 16.4998C28.3327 9.68833 22.8109 4.1665 15.9993 4.1665ZM1.66602 16.4998C1.66602 8.58376 8.08327 2.1665 15.9993 2.1665C23.9154 2.1665 30.3327 8.58376 30.3327 16.4998C30.3327 24.4159 23.9154 30.8332 15.9993 30.8332C8.08327 30.8332 1.66602 24.4159 1.66602 16.4998Z" fill="#FF4848"/>
</g>
</svg>
