<svg width="64" height="64" viewBox="0 0 64 64" fill="none" xmlns="http://www.w3.org/2000/svg">
<rect width="64" height="64" rx="32" fill="#403730"/>
<path fill-rule="evenodd" clip-rule="evenodd" d="M32 32.75C28.5482 32.75 25.75 35.5482 25.75 39V40C25.75 40.4142 25.4142 40.75 25 40.75C24.5858 40.75 24.25 40.4142 24.25 40V39C24.25 34.7198 27.7198 31.25 32 31.25C36.2802 31.25 39.75 34.7198 39.75 39V40C39.75 40.4142 39.4142 40.75 39 40.75C38.5858 40.75 38.25 40.4142 38.25 40V39C38.25 35.5482 35.4518 32.75 32 32.75Z" fill="white"/>
<path fill-rule="evenodd" clip-rule="evenodd" d="M32 24.75C30.2051 24.75 28.75 26.2051 28.75 28C28.75 29.7949 30.2051 31.25 32 31.25C33.7949 31.25 35.25 29.7949 35.25 28C35.25 26.2051 33.7949 24.75 32 24.75ZM27.25 28C27.25 25.3766 29.3766 23.25 32 23.25C34.6234 23.25 36.75 25.3766 36.75 28C36.75 30.6234 34.6234 32.75 32 32.75C29.3766 32.75 27.25 30.6234 27.25 28Z" fill="white"/>
</svg>
