<svg width="193" height="42" fill="none" xmlns="http://www.w3.org/2000/svg"><path d="M162.205 28.54c-.855-.344-1.046-.618-1.046-1.546V6.174c0-.731.322-1.19.903-1.31.77-.158 1.373.255 1.487 1.036.028.19.021.386.021.58v11.438l.109.027c.142-.19.289-.378.426-.572l7.974-11.264c.164-.23.321-.465.498-.684.386-.48 1.015-.595 1.518-.29.513.312.698.899.432 1.472-.125.268-.302.516-.474.759-2.869 4.058-5.743 8.115-8.613 12.173-.131.186-.251.382-.387.59.048.057.082.12.134.156a7025.2 7025.2 0 008.622 5.866c1.169.794 1.158 1.636-.039 2.388h-.424c-.406-.24-.829-.458-1.218-.723-2.71-1.837-5.414-3.684-8.12-5.525-.119-.082-.253-.14-.436-.242 0 1.671-.019 3.252.007 4.832.014.809-.227 1.406-1.056 1.658h-.318zM60.793 8.609c-.538 1.355-1.028 2.576-1.508 3.802-1.86 4.75-3.714 9.5-5.577 14.249a6.016 6.016 0 01-.512 1.038c-.408.636-1.17.835-1.808.514-.61-.307-.871-.946-.59-1.666.83-2.111 1.693-4.21 2.543-6.314 1.806-4.468 3.61-8.937 5.417-13.405.072-.18.148-.358.228-.534.365-.816.965-1.265 1.895-1.266.906 0 1.45.487 1.778 1.256.46 1.085.89 2.183 1.33 3.276 2.158 5.37 4.315 10.739 6.471 16.11.118.293.232.59.322.893.225.766-.08 1.458-.739 1.708-.73.277-1.52-.062-1.825-.818-.527-1.305-1.03-2.619-1.544-3.929l-5.708-14.54c-.032-.08-.072-.157-.173-.374zM76.05 23.748c.254.285.453.554.697.771 2.713 2.408 6.591 1.974 8.729-.963.161-.222.36-.446.594-.58.396-.228 1.014-.086 1.316.253.362.404.29.868.069 1.283-.5.932-1.24 1.662-2.1 2.273-4.005 2.848-9.69 1.506-11.806-2.915-2.465-5.15.68-10.558 5.904-11.392 3.028-.483 5.526.545 7.485 2.874.704.837.64 1.473-.294 2.066-1.503.955-3.053 1.836-4.587 2.746-1.822 1.079-3.645 2.154-5.467 3.233-.164.098-.32.208-.541.351zm8.573-7.609c-1.88-1.989-5.39-2.098-7.545-.33-1.787 1.464-2.81 4.59-1.882 5.866l9.427-5.535v-.001zm26.063 7.588c.85 1.14 1.934 1.847 3.261 2.17 2.347.572 4.649-.291 6.067-2.256.296-.41.592-.802 1.174-.773.777.038 1.258.708.95 1.454-.203.492-.536.953-.895 1.352-2.655 2.957-7.399 3.44-10.617 1.103-3.689-2.679-4.397-7.912-1.545-11.419 2.963-3.641 8.174-4.037 11.67-.878.312.282.613.59.863.926.625.842.507 1.477-.393 2.024-2.172 1.319-4.355 2.62-6.536 3.924-1.316.786-2.637 1.564-3.999 2.372v.001zm-.915-2l9.456-5.587c-1.577-1.705-4.673-2.145-6.931-.753-2.448 1.51-3.221 4.402-2.525 6.34zm26.544-.244h-8.885c-.009.206-.026.409-.026.612-.006 1.673.006 3.347-.016 5.02-.012.902-.911 1.454-1.725 1.08-.506-.233-.691-.659-.69-1.202.006-2.872.003-5.743.003-8.614 0-1.48-.002-2.96 0-4.44.002-.829.486-1.34 1.241-1.324.726.016 1.18.52 1.182 1.335.006 1.586.002 3.17.002 4.757v.6h8.887c.009-.206.025-.393.026-.581.003-1.621-.011-3.242.01-4.862.013-.97.882-1.523 1.723-1.128.516.24.673.688.673 1.217v3.487c0 3.17.004 6.342-.002 9.512-.003 1.034-.771 1.605-1.677 1.269-.584-.216-.704-.71-.711-1.238-.017-1.603-.011-3.206-.015-4.809v-.692zm48.644 6.976c-4.424-.008-7.931-3.542-7.926-7.986.005-4.404 3.578-7.94 8.003-7.921 4.431.019 7.977 3.569 7.964 7.973-.014 4.45-3.554 7.942-8.041 7.935v-.001zm.02-2.104a5.862 5.862 0 005.912-5.852c.007-3.02-2.433-5.864-5.859-5.875-3.365-.01-5.879 2.61-5.931 5.844-.052 3.225 2.619 5.876 5.878 5.883zm-87.026 1.894c-4.553-.01-8.114-3.162-8.416-7.012-.354-4.487 2.449-8.153 6.765-8.768 3.075-.44 5.586.626 7.529 3.026.441.545.455 1.065.098 1.493-.346.414-.882.56-1.331.314-.209-.114-.388-.302-.544-.487-1.559-1.859-3.544-2.63-5.907-2.077-2.366.554-3.808 2.137-4.34 4.491-.716 3.174 1.737 6.49 4.986 6.788 2.313.213 4.137-.638 5.489-2.51.493-.685 1.09-.843 1.669-.44.533.372.612 1.035.157 1.685-1.613 2.302-3.841 3.456-6.155 3.497zm51.987-6.489c-1.271 0-2.543.005-3.814-.004a6.057 6.057 0 01-.947-.088c-.674-.112-1.05-.598-.997-1.261.049-.617.501-1.05 1.168-1.058 1.943-.021 3.885-.027 5.827-.03 1.093-.002 2.187-.013 3.279.03.788.03 1.227.48 1.239 1.16.013.697-.429 1.162-1.254 1.181-1.499.034-3 .01-4.501.01v.061z" fill="#fff"/><path d="M34.98 41.364c-.407.068-.816-.138-1.228-.295A30927.599 30927.599 0 011.924 28.951C.096 28.253-.43 27.103.35 25.696c.276-.497.687-.77 1.207-.983 4.863-1.978 9.717-3.977 14.574-5.97.96-.393 1.911-.33 2.857.049 6.988 2.797 13.98 5.582 20.96 8.4 1.495.604 1.95 1.764 1.33 3.238a999.86 999.86 0 01-3.988 9.331c-.42.972-1.12 1.6-2.31 1.604v-.002zm-2.821-32.91c.306.103.648.197.974.33 4.247 1.743 8.496 3.485 12.738 5.244 1.635.678 1.8 1.112 1.11 2.76a463.47 463.47 0 01-2.083 4.91c-.438 1.014-1.098 1.391-2.237.951a3382.446 3382.446 0 00-20.09-7.679c-.637-.241-1.134-.537-1.179-1.275-.046-.757.47-1.129 1.064-1.377 2.954-1.236 5.913-2.454 8.876-3.668.243-.1.516-.124.827-.196zm16.285 2.14c-.21-.074-.59-.193-.959-.34-3.43-1.355-6.857-2.72-10.29-4.07-.647-.255-1.264-.543-1.308-1.334-.047-.862.565-1.215 1.268-1.496C39.711 2.335 42.26 1.3 44.81.264c.865-.35 1.7-.358 2.581.015 1.267.535 2.574.974 3.855 1.479 1.378.542 1.656 1.14 1.108 2.46-.714 1.721-1.463 3.429-2.208 5.139-.29.667-.623 1.307-1.7 1.237h-.001z" fill="#C01025"/><path d="M50.521 34.29h6.21v5.2H55.59v-4.14h-3.927v4.14H50.52v-5.2zm13.366 2.72a3.19 3.19 0 01-.31 1.297c-.196.4-.476.728-.841.983-.36.248-.782.372-1.27.372-1.053 0-1.856-.274-2.41-.82v2.46h-1.142v-7.011h.95l.146.763c.572-.585 1.391-.878 2.457-.878.468 0 .882.121 1.242.363.365.242.651.572.858.992.207.42.313.89.32 1.412v.067zm-3.06 1.812c.396 0 .73-.095 1.005-.286.28-.197.49-.439.63-.725.146-.293.222-.576.228-.85a2.304 2.304 0 00-.21-.924 1.671 1.671 0 00-.612-.735c-.274-.197-.62-.296-1.04-.296a1.59 1.59 0 00-.923.277 1.867 1.867 0 00-.63.706c-.146.286-.22.588-.22.906 0 .35.074.671.22.964.146.292.353.527.62.706.275.171.585.257.932.257zm7.283-4.751c.596 0 1.132.121 1.606.363.481.242.856.579 1.124 1.011.274.426.41.906.41 1.44 0 .529-.136 1.009-.41 1.441a2.76 2.76 0 01-1.124 1.002 3.493 3.493 0 01-1.607.362c-.572 0-1.111-.12-1.616-.362a3.128 3.128 0 01-1.197-1.011 2.466 2.466 0 01-.447-1.431c0-.528.15-1.005.447-1.431.299-.433.697-.77 1.197-1.012a3.583 3.583 0 011.616-.372zm.008 4.76c.56 0 1.032-.155 1.416-.467.383-.318.575-.81.575-1.478 0-.668-.192-1.161-.575-1.48-.384-.317-.856-.476-1.416-.476-.353 0-.69.067-1.013.2a1.801 1.801 0 00-.795.64c-.2.292-.301.664-.301 1.116 0 .451.1.823.301 1.116.207.286.469.496.785.63.323.133.664.2 1.023.2zm5.322-.61l3.826-3.93h1.142v5.199h-1.142v-3.93l-3.826 3.93h-1.142v-5.2h1.142v3.931zm12.199-.401c-.007.65-.29 1.126-.85 1.431-.56.3-1.29.449-2.191.449-.658 0-1.224-.09-1.699-.267-.469-.185-.828-.442-1.078-.773a1.88 1.88 0 01-.365-1.145h1.142c0 .407.191.71.575.907.39.197.864.298 1.425.305.517.006.959-.064 1.324-.21.365-.146.548-.382.548-.706 0-.153-.028-.26-.082-.324-.05-.07-.18-.121-.393-.153-.207-.038-.551-.057-1.032-.057H81.72v-.878h1.242c.457 0 .803-.041 1.04-.124.245-.083.366-.242.366-.477 0-.216-.173-.375-.52-.477-.341-.108-.758-.162-1.251-.162-.56-.013-1.035.041-1.425.162-.384.12-.575.321-.575.601h-1.142c0-.674.326-1.132.977-1.374.652-.241 1.373-.362 2.165-.362.791 0 1.473.098 2.045.296.579.197.868.617.868 1.259 0 .502-.174.852-.52 1.05.431.196.648.537.648 1.02v.01zm2.203-.104a2.39 2.39 0 00-.009.238l.01-.238zm4.082-.945c.396.083.691.223.886.42.201.19.302.467.302.83v.019c0 .35-.089.633-.265.849-.177.21-.457.366-.84.467-.378.096-.883.143-1.516.143h-3.8v-5.208h4.083c.614 0 1.086.108 1.415.324.335.216.502.531.502.945v.038c0 .305-.064.553-.191.744-.122.19-.314.334-.576.43zm-.347-1.002c0-.203-.052-.35-.155-.438a.729.729 0 00-.402-.163 4.8 4.8 0 00-.703-.038h-2.475v1.317l2.338.019h.137c.31 0 .542-.01.694-.029a.729.729 0 00.402-.171c.11-.102.164-.268.164-.497zm-1.105 2.843c.347 0 .612-.01.795-.028a.89.89 0 00.456-.182c.116-.101.174-.26.174-.477 0-.216-.058-.372-.174-.467a.831.831 0 00-.456-.172 6.18 6.18 0 00-.795-.038h-2.63v1.364h2.63zm6.816-4.541a3.49 3.49 0 011.607.363c.481.242.856.579 1.123 1.011.274.426.411.906.411 1.44 0 .529-.137 1.009-.411 1.441a2.75 2.75 0 01-1.123 1.002 3.493 3.493 0 01-1.607.362 3.7 3.7 0 01-1.617-.362 3.128 3.128 0 01-1.196-1.011 2.466 2.466 0 01-.447-1.431c0-.528.149-1.005.447-1.431a3.02 3.02 0 011.196-1.012 3.583 3.583 0 011.617-.372zm.009 4.76c.56 0 1.032-.155 1.415-.467.384-.318.576-.81.576-1.478 0-.668-.192-1.161-.576-1.48-.383-.317-.855-.476-1.415-.476-.353 0-.691.067-1.014.2a1.801 1.801 0 00-.794.64c-.201.292-.302.664-.302 1.116 0 .451.1.823.302 1.116.207.286.469.496.785.63.323.133.664.2 1.023.2zm10.801-.324h.904v1.899h-1.133v-.907l-5.753-.009v.916h-1.142v-1.899h.457c.329-.432.566-.82.712-1.163.153-.35.253-.741.302-1.174.048-.439.073-1.065.073-1.88h5.57l.01 4.217zm-4.53-3.29c-.006.572-.03 1.039-.073 1.401a3.948 3.948 0 01-.237.974 4.438 4.438 0 01-.512.915h4.201v-3.281l-3.379-.01zm5.985 1.678c0-.534.14-1.014.42-1.44.287-.433.676-.77 1.169-1.012a3.768 3.768 0 011.662-.362c.877 0 1.556.19 2.037.572.481.382.837.916 1.068 1.603h-1.15a1.54 1.54 0 00-.347-.649 1.891 1.891 0 00-.676-.486 2.215 2.215 0 00-.904-.181c-.451 0-.834.085-1.151.257a1.757 1.757 0 00-.721.706 2.044 2.044 0 00-.238.992c0 .318.076.63.229.935.152.305.386.556.703.754.316.19.709.28 1.178.267.335 0 .639-.06.913-.181.274-.128.496-.29.667-.487.176-.203.289-.417.338-.64h1.15c-.042.357-.216.704-.52 1.04a3.412 3.412 0 01-1.142.812c-.456.21-.934.314-1.434.314a3.66 3.66 0 01-1.616-.362 3.094 3.094 0 01-1.196-1.02 2.504 2.504 0 01-.439-1.432zm13.078-2.605v1.06h-2.475v4.14h-1.141v-4.14h-2.512v-1.06h6.128zm2.336 3.426a2.427 2.427 0 00-.009.238l.009-.238zm4.082-.945c.395.083.691.223.886.42.2.19.301.467.301.83v.019c0 .35-.088.633-.265.849-.176.21-.457.366-.84.467-.378.096-.883.143-1.516.143h-3.799v-5.208h4.082c.615 0 1.087.108 1.416.324.334.216.502.531.502.945v.038c0 .305-.064.553-.192.744-.122.19-.313.334-.575.43zm-.347-1.002c0-.203-.052-.35-.156-.438a.726.726 0 00-.401-.163 4.815 4.815 0 00-.704-.038h-2.474v1.317l2.337.019h.137c.311 0 .542-.01.695-.029a.726.726 0 00.401-.171c.11-.102.165-.268.165-.497zm-1.105 2.843c.347 0 .612-.01.794-.028a.89.89 0 00.457-.182c.115-.101.173-.26.173-.477 0-.216-.058-.372-.173-.467a.832.832 0 00-.457-.172 6.163 6.163 0 00-.794-.038h-2.63v1.364h2.63zm6.815-4.541c.597 0 1.133.121 1.608.363.48.242.855.579 1.123 1.011.274.426.411.906.411 1.44 0 .529-.137 1.009-.411 1.441a2.76 2.76 0 01-1.123 1.002 3.495 3.495 0 01-1.608.362c-.572 0-1.111-.12-1.616-.362a3.126 3.126 0 01-1.196-1.011 2.461 2.461 0 01-.448-1.431c0-.528.149-1.005.448-1.431a3.02 3.02 0 011.196-1.012 3.582 3.582 0 011.616-.372zm.009 4.76c.56 0 1.032-.155 1.416-.467.383-.318.575-.81.575-1.478 0-.668-.192-1.161-.575-1.48-.384-.317-.856-.476-1.416-.476a2.63 2.63 0 00-1.013.2 1.8 1.8 0 00-.795.64c-.201.292-.301.664-.301 1.116 0 .451.1.823.301 1.116.207.286.469.496.786.63.322.133.663.2 1.022.2zm14.186-4.521v5.18h-1.142v-4.198h-3.123c-.073.999-.143 1.708-.21 2.128-.067.42-.176.766-.329 1.04-.176.28-.386.496-.63.648a2.523 2.523 0 01-.694.315c-.213.057-.319.08-.319.067v-1.193c.322 0 .566-.171.73-.515.128-.35.216-.67.265-.963.055-.3.088-.61.1-.935.013-.324.019-.85.019-1.574h5.333zm7.378 2.652h-5.187c.018.324.106.63.264.916.159.28.393.508.704.687.31.178.688.267 1.132.267.384 0 .721-.07 1.014-.21a1.88 1.88 0 00.685-.534c.164-.217.246-.423.246-.62h1.142c0 .33-.122.667-.366 1.01-.243.344-.599.63-1.068.86-.469.228-1.026.343-1.671.343a3.688 3.688 0 01-1.608-.353 3.001 3.001 0 01-1.178-1.002 2.565 2.565 0 01-.438-1.469c0-.56.14-1.053.42-1.479a2.775 2.775 0 011.16-.992 3.768 3.768 0 011.644-.353c.615 0 1.153.115 1.616.344.469.229.831.553 1.087.973.262.413.396.9.402 1.46v.152zm-3.087-2.07c-.524 0-.947.12-1.269.362-.323.242-.554.56-.694.954h3.835a1.744 1.744 0 00-.612-.954c-.298-.241-.718-.362-1.26-.362zm3.999 2.003c0-.534.14-1.014.42-1.44.287-.433.676-.77 1.169-1.012a3.765 3.765 0 011.662-.362c.877 0 1.556.19 2.037.572.481.382.837.916 1.068 1.603h-1.15a1.54 1.54 0 00-.347-.649 1.891 1.891 0 00-.676-.486 2.219 2.219 0 00-.904-.181c-.451 0-.834.085-1.151.257a1.751 1.751 0 00-.721.706 2.044 2.044 0 00-.238.992c0 .318.076.63.229.935.152.305.386.556.703.754.316.19.709.28 1.178.267.335 0 .639-.06.913-.181.274-.128.496-.29.667-.487.176-.203.289-.417.337-.64h1.151c-.042.357-.216.704-.52 1.04a3.412 3.412 0 01-1.142.812c-.457.21-.934.314-1.434.314a3.66 3.66 0 01-1.616-.362 3.094 3.094 0 01-1.196-1.02 2.496 2.496 0 01-.439-1.432zm13.078-2.605v1.06H167.5v4.14h-1.141v-4.14h-2.512v-1.06h6.128zm6.189 2.11v-2.11h1.114v5.2h-1.114v-2.166h-3.89v2.166h-1.114v-5.2h1.114v2.11h3.89zm3.441 1.821l3.826-3.93h1.142v5.199h-1.142v-3.93l-3.826 3.93h-1.142v-5.2h1.142v3.931zm12.546-3.931v4.112H193v2.166h-1.142V39.49h-6.1v-5.2h1.142v4.112h4.109v-4.111h1.142z" fill="#656160"/></svg>