<svg width="193" height="42" fill="none" xmlns="http://www.w3.org/2000/svg"><path d="M162.205 28.54c-.855-.344-1.046-.618-1.046-1.546V6.173c0-.73.322-1.19.903-1.309.77-.158 1.373.255 1.487 1.035.028.19.021.387.021.58v11.439l.109.026c.142-.19.289-.377.426-.572l7.974-11.264c.164-.23.321-.465.498-.684.386-.48 1.015-.595 1.518-.29.513.313.698.9.432 1.472-.125.269-.302.516-.474.76-2.869 4.058-5.743 8.114-8.613 12.172-.131.187-.251.382-.387.59.048.058.082.12.134.157a6914.34 6914.34 0 008.622 5.866c1.169.794 1.158 1.635-.039 2.387h-.424c-.406-.239-.829-.458-1.218-.722-2.71-1.837-5.414-3.684-8.12-5.526-.119-.081-.253-.14-.436-.242 0 1.672-.019 3.252.007 4.833.014.808-.227 1.405-1.056 1.657h-.318v.001zM60.793 8.609c-.538 1.355-1.028 2.576-1.508 3.801-1.86 4.75-3.714 9.5-5.577 14.25a6.015 6.015 0 01-.512 1.038c-.408.636-1.17.835-1.808.513-.61-.306-.871-.946-.59-1.666.83-2.11 1.693-4.21 2.543-6.313 1.806-4.469 3.61-8.937 5.417-13.406.072-.18.148-.357.228-.534.365-.816.965-1.264 1.895-1.265.906 0 1.45.486 1.778 1.256.46 1.084.89 2.183 1.33 3.276 2.158 5.37 4.315 10.739 6.471 16.109.118.294.232.59.322.893.225.767-.08 1.46-.739 1.709-.73.277-1.52-.063-1.825-.819-.527-1.304-1.03-2.618-1.544-3.928l-5.708-14.54c-.032-.08-.072-.158-.173-.374zM76.05 23.748c.254.284.453.554.697.77 2.713 2.409 6.591 1.974 8.729-.962.161-.222.36-.446.594-.58.396-.228 1.014-.086 1.316.253.362.404.29.868.069 1.282-.5.933-1.24 1.662-2.1 2.273-4.005 2.848-9.69 1.507-11.806-2.914-2.465-5.15.68-10.558 5.904-11.392 3.028-.483 5.526.544 7.485 2.874.704.836.64 1.473-.294 2.066-1.503.954-3.053 1.836-4.587 2.745-1.822 1.08-3.645 2.155-5.467 3.234-.164.097-.32.207-.541.351zm8.573-7.61c-1.88-1.988-5.39-2.098-7.545-.33-1.787 1.465-2.81 4.591-1.882 5.867l9.427-5.535v-.001zm26.063 7.589c.85 1.14 1.934 1.847 3.261 2.17 2.347.572 4.649-.291 6.067-2.256.296-.41.592-.802 1.174-.773.777.038 1.258.708.95 1.454-.203.492-.536.953-.895 1.352-2.655 2.957-7.399 3.44-10.617 1.103-3.689-2.679-4.397-7.912-1.545-11.419 2.963-3.641 8.174-4.037 11.67-.878.312.282.613.59.863.926.625.842.507 1.477-.393 2.024-2.172 1.319-4.355 2.62-6.536 3.924-1.316.786-2.637 1.564-3.999 2.372v.001zm-.915-2l9.456-5.587c-1.577-1.705-4.673-2.145-6.931-.753-2.448 1.51-3.221 4.402-2.525 6.34zm26.544-.244h-8.885c-.009.206-.026.409-.026.612-.006 1.673.006 3.347-.016 5.02-.012.902-.911 1.454-1.725 1.08-.506-.233-.691-.66-.69-1.203.006-2.87.003-5.742.003-8.613 0-1.48-.002-2.96 0-4.44.002-.83.486-1.34 1.241-1.324.726.016 1.18.52 1.182 1.335.006 1.586.002 3.17.002 4.756v.601h8.887c.009-.206.025-.393.026-.581.003-1.621-.011-3.242.01-4.862.013-.97.882-1.523 1.723-1.128.516.24.673.688.673 1.216v3.488c0 3.17.004 6.342-.002 9.512-.003 1.034-.771 1.605-1.677 1.269-.584-.216-.704-.71-.711-1.238-.017-1.603-.011-3.206-.015-4.809v-.692zm48.644 6.976c-4.424-.008-7.931-3.542-7.926-7.986.005-4.404 3.578-7.94 8.003-7.921 4.431.019 7.977 3.569 7.964 7.973-.014 4.45-3.554 7.942-8.041 7.935v-.001zm.02-2.104a5.862 5.862 0 005.912-5.852c.007-3.02-2.433-5.864-5.859-5.875-3.365-.01-5.879 2.61-5.931 5.844-.052 3.225 2.619 5.876 5.878 5.883zm-87.026 1.893c-4.553-.01-8.114-3.162-8.416-7.012-.354-4.486 2.449-8.152 6.765-8.768 3.075-.438 5.586.626 7.529 3.027.441.544.455 1.064.098 1.493-.346.414-.882.56-1.331.314-.209-.115-.388-.303-.544-.488-1.559-1.858-3.544-2.629-5.907-2.076-2.366.554-3.808 2.137-4.34 4.49-.716 3.174 1.737 6.49 4.986 6.789 2.313.212 4.137-.639 5.489-2.511.493-.684 1.09-.843 1.669-.439.533.371.612 1.034.157 1.684-1.613 2.303-3.841 3.456-6.155 3.497zm51.987-6.488c-1.271 0-2.543.005-3.814-.005a6.057 6.057 0 01-.947-.087c-.674-.112-1.05-.599-.997-1.262.049-.617.501-1.05 1.168-1.058 1.943-.02 3.885-.026 5.827-.03 1.093-.002 2.187-.012 3.279.03.788.03 1.227.481 1.239 1.16.013.698-.429 1.163-1.254 1.182-1.499.034-3 .01-4.501.01v.06zM34.98 41.363c-.407.069-.816-.138-1.228-.294A30698.1 30698.1 0 011.924 28.95C.096 28.252-.43 27.103.35 25.695c.276-.497.687-.77 1.207-.982 4.863-1.978 9.717-3.977 14.574-5.97.96-.393 1.911-.33 2.857.048 6.988 2.797 13.98 5.583 20.96 8.401 1.495.604 1.95 1.764 1.33 3.237a971.975 971.975 0 01-3.988 9.332c-.42.971-1.12 1.599-2.31 1.603zM32.159 8.454c.306.102.648.197.974.33 4.247 1.743 8.496 3.485 12.738 5.243 1.635.679 1.8 1.113 1.11 2.761a463.47 463.47 0 01-2.083 4.91c-.438 1.014-1.098 1.39-2.237.95a3382.446 3382.446 0 00-20.09-7.678c-.637-.242-1.134-.538-1.179-1.275-.046-.757.47-1.129 1.064-1.377a1245.09 1245.09 0 018.876-3.668c.243-.1.516-.125.827-.196zm16.285 2.14c-.21-.074-.59-.193-.959-.34-3.43-1.355-6.857-2.72-10.29-4.07-.647-.255-1.264-.543-1.308-1.334-.047-.862.565-1.215 1.268-1.495 2.556-1.02 5.105-2.056 7.654-3.09.865-.352 1.7-.36 2.581.014 1.267.535 2.574.974 3.855 1.479 1.378.542 1.656 1.14 1.108 2.46-.714 1.721-1.463 3.43-2.208 5.139-.29.667-.623 1.307-1.7 1.237h-.001z" fill="#C01025"/><path d="M50.521 34.29h6.21v5.2H55.59v-4.14h-3.927v4.14H50.52v-5.2zm13.366 2.72c-.013.457-.116.89-.31 1.297-.196.4-.476.728-.841.982-.36.248-.782.372-1.27.372-1.053 0-1.856-.273-2.41-.82v2.461h-1.142v-7.011h.95l.146.763c.572-.586 1.391-.878 2.457-.878.468 0 .882.12 1.242.362.365.242.651.573.858.993.207.42.313.89.32 1.412v.066zm-3.06 1.812c.396 0 .73-.096 1.005-.286.28-.197.49-.44.63-.725.146-.293.222-.576.228-.85a2.304 2.304 0 00-.21-.925 1.671 1.671 0 00-.612-.734c-.274-.197-.62-.296-1.04-.296-.348 0-.655.092-.923.277a1.867 1.867 0 00-.63.706c-.146.286-.22.588-.22.906 0 .35.074.67.22.963.146.293.353.528.62.706.275.172.585.258.932.258zm7.283-4.751c.596 0 1.132.12 1.606.363.481.241.856.578 1.124 1.01.274.427.41.907.41 1.441 0 .528-.136 1.008-.41 1.44-.268.427-.643.76-1.124 1.002a3.494 3.494 0 01-1.607.363 3.7 3.7 0 01-1.616-.362 3.127 3.127 0 01-1.197-1.012 2.465 2.465 0 01-.447-1.43c0-.529.15-1.006.447-1.432a3.02 3.02 0 011.197-1.01 3.583 3.583 0 011.616-.373zm.008 4.76c.56 0 1.032-.155 1.416-.467.383-.318.575-.81.575-1.479 0-.667-.192-1.16-.575-1.478-.384-.318-.856-.477-1.416-.477-.353 0-.69.066-1.013.2a1.801 1.801 0 00-.795.64c-.2.292-.301.664-.301 1.115 0 .452.1.824.301 1.116.207.287.469.497.785.63.323.134.664.2 1.023.2zm5.322-.611l3.826-3.93h1.142v5.2h-1.142v-3.93l-3.826 3.93h-1.142v-5.2h1.142v3.93zm12.199-.4c-.007.649-.29 1.126-.85 1.431-.56.3-1.29.449-2.191.449-.658 0-1.224-.09-1.699-.268-.469-.184-.828-.442-1.078-.772a1.88 1.88 0 01-.365-1.145h1.142c0 .407.191.709.575.906.39.197.864.3 1.425.306.517.006.959-.064 1.324-.21.365-.147.548-.382.548-.706 0-.153-.028-.261-.082-.325-.05-.07-.18-.12-.393-.152-.207-.039-.551-.058-1.032-.058H81.72V36.4h1.242c.457 0 .803-.042 1.04-.124.245-.083.366-.242.366-.477 0-.217-.173-.376-.52-.477-.341-.108-.758-.162-1.251-.162-.56-.013-1.035.04-1.425.162-.384.12-.575.32-.575.6h-1.142c0-.673.326-1.131.977-1.373.652-.242 1.373-.363 2.165-.363.791 0 1.473.1 2.045.296.579.197.868.617.868 1.26 0 .502-.174.852-.52 1.049.431.197.648.537.648 1.02v.01zm2.203-.105a2.432 2.432 0 00-.009.239l.01-.239zm4.082-.944c.396.082.691.222.886.42.201.19.302.467.302.83v.019c0 .35-.089.632-.265.849-.177.21-.457.365-.84.467-.378.096-.883.143-1.516.143h-3.8V34.29h4.083c.614 0 1.086.109 1.415.325.335.216.502.53.502.944v.038c0 .306-.064.554-.191.745-.122.19-.314.333-.576.429zm-.347-1.002c0-.203-.052-.35-.155-.439a.729.729 0 00-.402-.162 4.8 4.8 0 00-.703-.038h-2.475v1.316l2.338.02h.137c.31 0 .542-.01.694-.03a.729.729 0 00.402-.17c.11-.103.164-.268.164-.497zm-1.105 2.843c.347 0 .612-.01.795-.029a.89.89 0 00.456-.18c.116-.103.174-.262.174-.478 0-.216-.058-.372-.174-.467a.832.832 0 00-.456-.172 6.201 6.201 0 00-.795-.038h-2.63v1.364h2.63zm6.816-4.541c.596 0 1.132.12 1.607.363a2.72 2.72 0 011.123 1.01c.274.427.411.907.411 1.441 0 .528-.137 1.008-.411 1.44a2.75 2.75 0 01-1.123 1.002 3.494 3.494 0 01-1.607.363 3.7 3.7 0 01-1.617-.362 3.127 3.127 0 01-1.196-1.012 2.465 2.465 0 01-.447-1.43c0-.529.149-1.006.447-1.432a3.02 3.02 0 011.196-1.01 3.583 3.583 0 011.617-.373zm.009 4.76c.56 0 1.032-.155 1.415-.467.384-.318.576-.81.576-1.479 0-.667-.192-1.16-.576-1.478-.383-.318-.855-.477-1.415-.477a2.62 2.62 0 00-1.014.2 1.801 1.801 0 00-.794.64c-.201.292-.302.664-.302 1.115 0 .452.1.824.302 1.116.207.287.469.497.785.63.323.134.664.2 1.023.2zm10.801-.324h.904v1.899h-1.133v-.907l-5.753-.01v.917h-1.142v-1.899h.457c.329-.432.566-.82.712-1.164.153-.35.253-.74.302-1.173.048-.439.073-1.066.073-1.88h5.57l.01 4.217zm-4.53-3.291c-.006.572-.03 1.04-.073 1.402a3.95 3.95 0 01-.237.973 4.437 4.437 0 01-.512.916h4.201v-3.282l-3.379-.01zm5.985 1.679c0-.534.14-1.015.42-1.44.287-.433.676-.77 1.169-1.012a3.768 3.768 0 011.662-.362c.877 0 1.556.19 2.037.572.481.382.837.916 1.068 1.603h-1.15a1.54 1.54 0 00-.347-.65 1.891 1.891 0 00-.676-.486 2.215 2.215 0 00-.904-.18c-.451 0-.834.085-1.151.257a1.758 1.758 0 00-.721.706 2.043 2.043 0 00-.238.992c0 .318.076.63.229.935.152.305.386.556.703.753.316.191.709.28 1.178.267.335 0 .639-.06.913-.18.274-.128.496-.29.667-.487.176-.204.289-.417.338-.64h1.15c-.042.357-.216.703-.52 1.04a3.41 3.41 0 01-1.142.811 3.39 3.39 0 01-1.434.315c-.578 0-1.117-.12-1.616-.363a3.093 3.093 0 01-1.196-1.02 2.504 2.504 0 01-.439-1.431zm13.078-2.605v1.06h-2.475v4.14h-1.141v-4.14h-2.512v-1.06h6.128zm2.336 3.425a2.43 2.43 0 00-.009.239l.009-.239zm4.082-.944c.395.082.691.222.886.42.2.19.301.467.301.83v.019c0 .35-.088.632-.265.849-.176.21-.457.365-.84.467-.378.096-.883.143-1.516.143h-3.799V34.29h4.082c.615 0 1.087.109 1.416.325.334.216.502.53.502.944v.038c0 .306-.064.554-.192.745-.122.19-.313.333-.575.429zm-.347-1.002c0-.203-.052-.35-.156-.439a.726.726 0 00-.401-.162 4.815 4.815 0 00-.704-.038h-2.474v1.316l2.337.02h.137c.311 0 .542-.01.695-.03a.726.726 0 00.401-.17c.11-.103.165-.268.165-.497zm-1.105 2.843c.347 0 .612-.01.794-.029a.89.89 0 00.457-.18c.115-.103.173-.262.173-.478 0-.216-.058-.372-.173-.467a.833.833 0 00-.457-.172 6.185 6.185 0 00-.794-.038h-2.63v1.364h2.63zm6.815-4.541c.597 0 1.133.12 1.608.363.48.241.855.578 1.123 1.01.274.427.411.907.411 1.441 0 .528-.137 1.008-.411 1.44a2.76 2.76 0 01-1.123 1.002 3.496 3.496 0 01-1.608.363c-.572 0-1.111-.12-1.616-.362a3.125 3.125 0 01-1.196-1.012 2.46 2.46 0 01-.448-1.43c0-.529.149-1.006.448-1.432a3.02 3.02 0 011.196-1.01 3.582 3.582 0 011.616-.373zm.009 4.76c.56 0 1.032-.155 1.416-.467.383-.318.575-.81.575-1.479 0-.667-.192-1.16-.575-1.478-.384-.318-.856-.477-1.416-.477-.353 0-.691.066-1.013.2a1.8 1.8 0 00-.795.64c-.201.292-.301.664-.301 1.115 0 .452.1.824.301 1.116.207.287.469.497.786.63.322.134.663.2 1.022.2zm14.186-4.521v5.18h-1.142v-4.198h-3.123c-.073.999-.143 1.708-.21 2.127-.067.42-.176.767-.329 1.04a2.01 2.01 0 01-.63.649 2.521 2.521 0 01-.694.315c-.213.057-.319.08-.319.067v-1.193c.322 0 .566-.171.73-.515.128-.35.216-.67.265-.963.055-.3.088-.611.1-.935.013-.325.019-.85.019-1.575h5.333zm7.378 2.652h-5.187c.018.324.106.63.264.915.159.28.393.51.704.687.31.178.688.267 1.132.267.384 0 .721-.07 1.014-.21.298-.146.526-.324.685-.534.164-.216.246-.423.246-.62h1.142c0 .33-.122.668-.366 1.011-.243.344-.599.63-1.068.859-.469.229-1.026.343-1.671.343a3.688 3.688 0 01-1.608-.352 3.001 3.001 0 01-1.178-1.002 2.565 2.565 0 01-.438-1.47c0-.559.14-1.052.42-1.478a2.775 2.775 0 011.16-.992 3.767 3.767 0 011.644-.353c.615 0 1.153.114 1.616.343.469.23.831.554 1.087.973.262.414.396.9.402 1.46v.153zm-3.087-2.07c-.524 0-.947.12-1.269.362-.323.242-.554.56-.694.954h3.835a1.743 1.743 0 00-.612-.954c-.298-.242-.718-.362-1.26-.362zm3.999 2.003c0-.534.14-1.015.42-1.44.287-.433.676-.77 1.169-1.012a3.765 3.765 0 011.662-.362c.877 0 1.556.19 2.037.572.481.382.837.916 1.068 1.603h-1.15a1.54 1.54 0 00-.347-.65 1.891 1.891 0 00-.676-.486 2.219 2.219 0 00-.904-.18c-.451 0-.834.085-1.151.257a1.752 1.752 0 00-.721.706 2.043 2.043 0 00-.238.992c0 .318.076.63.229.935.152.305.386.556.703.753.316.191.709.28 1.178.267.335 0 .639-.06.913-.18.274-.128.496-.29.667-.487.176-.204.289-.417.337-.64h1.151c-.042.357-.216.703-.52 1.04a3.41 3.41 0 01-1.142.811c-.457.21-.934.315-1.434.315-.578 0-1.117-.12-1.616-.363a3.093 3.093 0 01-1.196-1.02 2.496 2.496 0 01-.439-1.431zm13.078-2.605v1.06H167.5v4.14h-1.141v-4.14h-2.512v-1.06h6.128zm6.189 2.109V34.29h1.114v5.199h-1.114v-2.166h-3.89v2.166h-1.114v-5.2h1.114V36.4h3.89zm3.441 1.821l3.826-3.93h1.142v5.2h-1.142v-3.93l-3.826 3.93h-1.142v-5.2h1.142v3.93zm12.546-3.93v4.112H193v2.166h-1.142V39.49h-6.1v-5.2h1.142v4.112h4.109v-4.111h1.142z" fill="#656160"/></svg>