<svg width="193" height="42" viewBox="0 0 193 42" fill="none" xmlns="http://www.w3.org/2000/svg">
<g id="Frame 3474724">
<g id="Group 3473646">
<g id="Group">
<path id="Vector" d="M162.205 28.5396C161.35 28.196 161.159 27.9222 161.159 26.9941C161.158 20.0538 161.158 13.1136 161.159 6.17336C161.159 5.44286 161.481 4.98406 162.062 4.8646C162.832 4.70602 163.435 5.11937 163.549 5.89955C163.577 6.08984 163.57 6.28647 163.57 6.47993C163.57 10.1081 163.57 13.7373 163.57 17.3655V17.9184C163.606 17.9268 163.643 17.9363 163.679 17.9448C163.821 17.7545 163.968 17.5674 164.105 17.3729C166.763 13.6189 169.421 9.86283 172.079 6.10887C172.243 5.87841 172.4 5.64372 172.577 5.42489C172.963 4.94494 173.592 4.82971 174.095 5.13523C174.608 5.44709 174.793 6.03381 174.527 6.60679C174.402 6.87531 174.225 7.12268 174.053 7.36583C171.184 11.4243 168.31 15.4806 165.44 19.539C165.309 19.725 165.189 19.9206 165.053 20.1289C165.101 20.186 165.135 20.2494 165.187 20.2853C168.06 22.2421 170.933 24.1989 173.809 26.1515C174.978 26.9454 174.967 27.7869 173.77 28.5386H173.346C172.94 28.2996 172.517 28.0808 172.128 27.8165C169.418 25.9792 166.714 24.1323 164.008 22.2908C163.889 22.2094 163.755 22.1502 163.572 22.0487C163.572 23.72 163.553 25.3005 163.579 26.8809C163.593 27.6897 163.352 28.287 162.523 28.5386H162.205V28.5396Z" fill="white"/>
<path id="Vector_2" d="M60.7928 8.60899C60.2548 9.96426 59.7646 11.1853 59.285 12.4105C57.425 17.1603 55.5713 21.9112 53.7081 26.6599C53.567 27.0183 53.4025 27.3746 53.1956 27.6981C52.7882 28.3345 52.0263 28.5332 51.3876 28.2118C50.7786 27.9053 50.5165 27.2657 50.7987 26.5458C51.6274 24.4346 52.4911 22.3362 53.341 20.2324C55.1469 15.7638 56.9518 11.2952 58.7577 6.82662C58.8298 6.64691 58.9062 6.46931 58.9858 6.29276C59.3508 5.47664 59.9514 5.0284 60.8808 5.02734C61.787 5.02734 62.3313 5.51363 62.6592 6.28324C63.1197 7.36789 63.5494 8.46627 63.9887 9.55937C66.1468 14.9287 68.304 20.298 70.46 25.6683C70.5778 25.9622 70.6924 26.2582 70.7815 26.5616C71.0075 27.3281 70.7019 28.0205 70.043 28.27C69.313 28.547 68.5236 28.2076 68.218 27.4517C67.6907 26.1472 67.1877 24.8332 66.6742 23.5234C64.7717 18.6763 62.8693 13.8292 60.9657 8.98322C60.9339 8.90288 60.8936 8.82571 60.7928 8.60899Z" fill="white"/>
<path id="Vector_3" d="M76.0496 23.7484C76.3043 24.0328 76.5027 24.3024 76.7467 24.5191C79.4598 26.9273 83.338 26.4928 85.476 23.556C85.6373 23.334 85.8368 23.1099 86.0702 22.9756C86.466 22.7483 87.0835 22.89 87.3859 23.2294C87.7477 23.6332 87.6766 24.0973 87.4549 24.5117C86.9541 25.4441 86.2156 26.1735 85.3551 26.7846C81.3496 29.6325 75.6645 28.291 73.5487 23.87C71.0839 18.7206 74.2289 13.3122 79.4535 12.4781C82.4807 11.995 84.9794 13.0225 86.9381 15.3525C87.6416 16.1887 87.578 16.8251 86.6442 17.4182C85.1407 18.3728 83.5905 19.2544 82.0573 20.1636C80.2355 21.243 78.4115 22.3181 76.5897 23.3974C76.4263 23.4947 76.2703 23.6046 76.0486 23.7484H76.0496ZM84.6229 16.139C82.7438 14.1505 79.2328 14.0405 77.0778 15.8081C75.291 17.2733 74.2681 20.3993 75.1965 21.6753C78.3192 19.8412 81.4451 18.0059 84.6229 16.1401V16.139Z" fill="white"/>
<path id="Vector_4" d="M110.686 23.727C111.536 24.8676 112.62 25.5738 113.947 25.8973C116.294 26.4692 118.596 25.6055 120.014 23.6413C120.31 23.2312 120.606 22.839 121.188 22.8675C121.965 22.9056 122.446 23.5758 122.138 24.3222C121.935 24.8137 121.602 25.2747 121.243 25.6743C118.588 28.6311 113.844 29.1142 110.626 26.7769C106.937 24.098 106.229 18.8651 109.081 15.3585C112.044 11.7166 117.255 11.3212 120.751 14.48C121.063 14.7623 121.364 15.0699 121.614 15.4061C122.239 16.2476 122.121 16.8829 121.221 17.4295C119.049 18.7488 116.866 20.0502 114.685 21.3537C113.369 22.1402 112.048 22.9182 110.686 23.7259V23.727ZM109.771 21.7268C112.925 19.8631 116.064 18.0088 119.227 16.1398C117.65 14.4346 114.554 13.9948 112.296 15.3871C109.848 16.8977 109.075 19.7891 109.771 21.7268Z" fill="white"/>
<path id="Vector_5" d="M136.315 21.4827H127.43C127.421 21.6889 127.404 21.8918 127.404 22.0948C127.398 23.7683 127.41 25.4418 127.388 27.1152C127.376 28.017 126.477 28.5688 125.663 28.1946C125.157 27.962 124.972 27.536 124.973 26.9926C124.979 24.1214 124.976 21.2501 124.976 18.3789C124.976 16.8989 124.974 15.4199 124.976 13.9399C124.978 13.11 125.462 12.5984 126.217 12.6153C126.943 12.6311 127.397 13.1354 127.399 13.9505C127.405 15.5362 127.401 17.1209 127.401 18.7066C127.401 18.8948 127.401 19.084 127.401 19.3071H136.288C136.297 19.1009 136.313 18.9138 136.314 18.7256C136.317 17.105 136.303 15.4844 136.324 13.8638C136.337 12.8944 137.206 12.3415 138.047 12.7358C138.563 12.9768 138.72 13.424 138.72 13.9526C138.72 15.1155 138.72 16.2783 138.72 17.4401C138.72 20.6106 138.724 23.782 138.718 26.9524C138.715 27.9863 137.947 28.5572 137.041 28.221C136.457 28.0054 136.337 27.5106 136.33 26.9831C136.313 25.3804 136.319 23.7767 136.315 22.1741C136.315 21.9648 136.315 21.7555 136.315 21.4817V21.4827Z" fill="white"/>
<path id="Vector_6" d="M184.959 28.4589C180.535 28.4515 177.028 24.9174 177.033 20.4731C177.038 16.069 180.611 12.5328 185.036 12.5518C189.467 12.5709 193.013 16.1208 193 20.5249C192.986 24.9745 189.446 28.4673 184.959 28.4599V28.4589ZM184.979 26.3551C188.257 26.3625 190.882 23.7556 190.891 20.5027C190.898 17.4824 188.458 14.6387 185.032 14.6281C181.667 14.6175 179.153 17.2372 179.101 20.472C179.049 23.6974 181.72 26.3477 184.979 26.3551Z" fill="white"/>
<path id="Vector_7" d="M97.953 28.2488C93.4 28.2393 89.8391 25.0868 89.5367 21.2367C89.1833 16.7501 91.9856 13.0839 96.302 12.4686C99.3769 12.0299 101.888 13.0945 103.831 15.4953C104.272 16.0397 104.286 16.5598 103.929 16.988C103.583 17.4024 103.047 17.5483 102.598 17.3019C102.389 17.1878 102.21 16.9996 102.054 16.8146C100.495 14.9561 98.51 14.1854 96.147 14.7383C93.7809 15.2923 92.3389 16.8748 91.8073 19.2291C91.0911 22.4027 93.5443 25.719 96.7932 26.0171C99.1063 26.2296 100.93 25.3786 102.282 23.5064C102.775 22.8224 103.372 22.6638 103.951 23.0677C104.484 23.4387 104.563 24.1016 104.108 24.7517C102.495 27.0542 100.267 28.2076 97.953 28.2488Z" fill="white"/>
<path id="Vector_8" d="M149.94 21.7601C148.669 21.7601 147.397 21.7654 146.126 21.7559C145.81 21.7538 145.491 21.7199 145.179 21.6681C144.505 21.5561 144.129 21.0698 144.182 20.4069C144.231 19.7896 144.683 19.3561 145.35 19.3487C147.293 19.3276 149.235 19.3223 151.177 19.3191C152.27 19.317 153.364 19.3064 154.456 19.3487C155.244 19.3794 155.683 19.8297 155.695 20.5084C155.708 21.2061 155.266 21.6713 154.441 21.6903C152.942 21.7242 151.441 21.6998 149.94 21.6998V21.7612V21.7601Z" fill="white"/>
</g>
<g id="Group 1">
<g id="Group_2">
<path id="Vector_9" d="M34.9806 41.3635C34.573 41.4319 34.1644 41.2258 33.7517 41.0694C23.1405 37.0337 12.5303 32.9979 1.92429 28.9508C0.0959517 28.2528 -0.430875 27.1033 0.350032 25.6959C0.62589 25.1988 1.03657 24.9254 1.55717 24.7131C6.41995 22.7351 11.2744 20.7364 16.131 18.7439C17.0913 18.3504 18.0423 18.4125 18.9881 18.7915C25.9758 21.5887 32.9687 24.3745 39.9471 27.1923C41.4425 27.7961 41.8978 28.956 41.2787 30.4296C39.9678 33.5489 38.6321 36.6567 37.2901 39.7614C36.8701 40.7328 36.1701 41.3604 34.9806 41.3646V41.3635Z" fill="#C01025"/>
<path id="Vector_10" d="M32.1587 8.4541C32.4647 8.55663 32.8069 8.65087 33.1325 8.78446C37.3803 10.5274 41.6292 12.2693 45.8708 14.0277C47.5062 14.706 47.6701 15.1399 46.9804 16.7886C46.2949 18.429 45.6022 20.0663 44.898 21.6984C44.4604 22.7123 43.7998 23.0892 42.6611 22.6491C35.9741 20.0632 29.2736 17.5135 22.5701 14.9701C21.9344 14.7288 21.4366 14.4326 21.392 13.6953C21.3463 12.9383 21.8618 12.5665 22.456 12.3179C25.4096 11.0825 28.3693 9.86356 31.3322 8.64983C31.5749 8.55041 31.8476 8.52556 32.1587 8.4541Z" fill="#C01025"/>
<path id="Vector_11" d="M48.4437 10.5943C48.2332 10.5198 47.8536 10.4007 47.4855 10.2547C44.0549 8.89906 40.6284 7.53414 37.1958 6.18371C36.5476 5.92895 35.9306 5.64106 35.887 4.84986C35.8403 3.98824 36.4522 3.6351 37.1553 3.35445C39.7106 2.33542 42.2597 1.29878 44.8088 0.264215C45.6737 -0.0868543 46.5086 -0.0941035 47.3901 0.278713C48.6574 0.814119 49.9641 1.25321 51.2448 1.75755C52.6231 2.30021 52.901 2.89775 52.3535 4.21711C51.6389 5.93931 50.8902 7.64702 50.1455 9.3568C49.8552 10.0237 49.5223 10.6637 48.4448 10.5943H48.4437Z" fill="#C01025"/>
</g>
</g>
<g id="&#208;&#191;&#209;&#128;&#208;&#190;&#208;&#184;&#208;&#183;&#208;&#178;&#208;&#190;&#208;&#180;&#209;&#129;&#209;&#130;&#208;&#178;&#208;&#190; &#208;&#187;&#208;&#181;&#209;&#129;&#209;&#130;&#208;&#189;&#208;&#184;&#209;&#134;">
<path d="M50.5214 34.2908H56.7313V39.49H55.5897V35.3497H51.6629V39.49H50.5214V34.2908Z" fill="#656160"/>
<path d="M63.8866 37.0096C63.8744 37.4675 63.7709 37.9 63.5761 38.307C63.3813 38.7077 63.1012 39.0352 62.736 39.2896C62.3768 39.5377 61.9536 39.6617 61.4666 39.6617C60.4133 39.6617 59.6097 39.3882 59.0557 38.8413V41.3025H57.9142V34.2908H58.8639L59.01 35.054C59.5823 34.4689 60.4012 34.1763 61.4666 34.1763C61.9354 34.1763 62.3494 34.2971 62.7086 34.5388C63.0738 34.7805 63.36 35.1112 63.567 35.5309C63.774 35.9507 63.8805 36.4213 63.8866 36.9428V37.0096ZM60.8273 38.8222C61.2231 38.8222 61.5579 38.7268 61.8319 38.536C62.1119 38.3388 62.322 38.0972 62.462 37.811C62.6081 37.5184 62.6842 37.2354 62.6903 36.9619C62.6842 36.6376 62.6142 36.3291 62.4803 36.0366C62.3524 35.7376 62.1485 35.4928 61.8684 35.302C61.5944 35.1048 61.2474 35.0063 60.8273 35.0063C60.4803 35.0063 60.1729 35.0985 59.905 35.2829C59.6371 35.461 59.4271 35.6963 59.2749 35.9889C59.1287 36.2751 59.0557 36.5771 59.0557 36.8951C59.0557 37.2449 59.1287 37.5661 59.2749 37.8587C59.421 38.1512 59.628 38.3865 59.8959 38.5646C60.1698 38.7363 60.4803 38.8222 60.8273 38.8222Z" fill="#656160"/>
<path d="M68.1091 34.0714C68.7057 34.0714 69.2415 34.1922 69.7164 34.4339C70.1973 34.6755 70.5717 35.0126 70.8396 35.4451C71.1136 35.8712 71.2506 36.3514 71.2506 36.8856C71.2506 37.4135 71.1136 37.8936 70.8396 38.3261C70.5717 38.7522 70.1973 39.0861 69.7164 39.3278C69.2415 39.5695 68.7057 39.6903 68.1091 39.6903C67.5368 39.6903 66.998 39.5695 66.4927 39.3278C65.9935 39.0797 65.5947 38.7427 65.2964 38.3166C64.9981 37.8841 64.8489 37.4071 64.8489 36.8856C64.8489 36.3577 64.9981 35.8807 65.2964 35.4546C65.5947 35.0222 65.9935 34.6851 66.4927 34.4434C66.9919 34.1954 67.5307 34.0714 68.1091 34.0714ZM68.1182 38.8317C68.6783 38.8317 69.1502 38.6759 69.5337 38.3643C69.9173 38.0463 70.109 37.5534 70.109 36.8856C70.109 36.2178 69.9173 35.7249 69.5337 35.4069C69.1502 35.0889 68.6783 34.9299 68.1182 34.9299C67.7651 34.9299 67.4272 34.9967 67.1046 35.1303C66.7819 35.2638 66.5171 35.4769 66.3101 35.7694C66.1092 36.062 66.0087 36.434 66.0087 36.8856C66.0087 37.3371 66.1092 37.7092 66.3101 38.0018C66.5171 38.2879 66.7788 38.4978 67.0954 38.6314C67.4181 38.7649 67.759 38.8317 68.1182 38.8317Z" fill="#656160"/>
<path d="M73.4399 38.2212L77.2663 34.2908H78.4078V39.49H77.2663V35.5596L73.4399 39.49H72.2984V34.2908H73.4399V38.2212Z" fill="#656160"/>
<path d="M85.6386 37.8205C85.6325 38.4692 85.3494 38.9462 84.7893 39.2515C84.2292 39.5504 83.4986 39.6998 82.5976 39.6998C81.9401 39.6998 81.3739 39.6108 80.899 39.4327C80.4302 39.2483 80.071 38.9907 79.8214 38.66C79.5779 38.3293 79.4561 37.9477 79.4561 37.5152H80.5976C80.5976 37.9223 80.7894 38.2243 81.173 38.4215C81.5626 38.6187 82.0375 38.7204 82.5976 38.7268C83.1151 38.7331 83.5565 38.6632 83.9217 38.5169C84.287 38.3706 84.4697 38.1353 84.4697 37.811C84.4697 37.6583 84.4423 37.5502 84.3875 37.4866C84.3388 37.4166 84.2079 37.3658 83.9948 37.334C83.7878 37.2958 83.4438 37.2767 82.9629 37.2767H81.7209V36.3991H82.9629C83.4195 36.3991 83.7665 36.3577 84.0039 36.2751C84.2475 36.1924 84.3692 36.0334 84.3692 35.7981C84.3692 35.5818 84.1957 35.4228 83.8487 35.3211C83.5078 35.213 83.0907 35.1589 82.5976 35.1589C82.0375 35.1462 81.5626 35.2002 81.173 35.3211C80.7894 35.4419 80.5976 35.6422 80.5976 35.9221H79.4561C79.4561 35.2479 79.7818 34.79 80.4333 34.5484C81.0847 34.3067 81.8061 34.1858 82.5976 34.1858C83.389 34.1858 84.0709 34.2844 84.6432 34.4816C85.2216 34.6787 85.5107 35.0985 85.5107 35.7408C85.5107 36.2433 85.3372 36.593 84.9902 36.7902C85.4225 36.9874 85.6386 37.3276 85.6386 37.811V37.8205Z" fill="#656160"/>
<path d="M87.8422 37.7156C87.8361 37.7728 87.8331 37.8523 87.8331 37.9541L87.8422 37.7156ZM91.9243 36.7711C92.32 36.8538 92.6153 36.9937 92.8101 37.1909C93.011 37.3817 93.1115 37.6583 93.1115 38.0208V38.0399C93.1115 38.3897 93.0232 38.6727 92.8467 38.889C92.6701 39.0988 92.39 39.2546 92.0065 39.3564C91.629 39.4518 91.1237 39.4995 90.4906 39.4995H86.6916V34.2908H90.7737C91.3885 34.2908 91.8604 34.3989 92.1891 34.6151C92.524 34.8314 92.6914 35.1462 92.6914 35.5596V35.5977C92.6914 35.903 92.6275 36.151 92.4996 36.3418C92.3779 36.5326 92.1861 36.6757 91.9243 36.7711ZM91.5773 35.7694C91.5773 35.5659 91.5255 35.4197 91.422 35.3306C91.3185 35.2416 91.1846 35.1875 91.0202 35.1684C90.8619 35.143 90.6275 35.1303 90.317 35.1303H87.8422V36.4468L90.1801 36.4658H90.317C90.6275 36.4658 90.8589 36.4563 91.0111 36.4372C91.1694 36.4181 91.3033 36.3609 91.4129 36.2655C91.5225 36.1638 91.5773 35.9984 91.5773 35.7694ZM90.4723 38.6123C90.8193 38.6123 91.0841 38.6028 91.2668 38.5837C91.4555 38.5582 91.6077 38.4978 91.7234 38.4024C91.8391 38.3007 91.8969 38.1417 91.8969 37.9254C91.8969 37.7092 91.8391 37.5534 91.7234 37.458C91.6077 37.3626 91.4555 37.3053 91.2668 37.2863C91.0841 37.2608 90.8193 37.2481 90.4723 37.2481H87.8422V38.6123H90.4723Z" fill="#656160"/>
<path d="M97.2878 34.0714C97.8844 34.0714 98.4202 34.1922 98.8951 34.4339C99.376 34.6755 99.7505 35.0126 100.018 35.4451C100.292 35.8712 100.429 36.3514 100.429 36.8856C100.429 37.4135 100.292 37.8936 100.018 38.3261C99.7505 38.7522 99.376 39.0861 98.8951 39.3278C98.4202 39.5695 97.8844 39.6903 97.2878 39.6903C96.7155 39.6903 96.1767 39.5695 95.6714 39.3278C95.1722 39.0797 94.7734 38.7427 94.4751 38.3166C94.1768 37.8841 94.0276 37.4071 94.0276 36.8856C94.0276 36.3577 94.1768 35.8807 94.4751 35.4546C94.7734 35.0222 95.1722 34.6851 95.6714 34.4434C96.1706 34.1954 96.7094 34.0714 97.2878 34.0714ZM97.2969 38.8317C97.8571 38.8317 98.3289 38.6759 98.7124 38.3643C99.096 38.0463 99.2878 37.5534 99.2878 36.8856C99.2878 36.2178 99.096 35.7249 98.7124 35.4069C98.3289 35.0889 97.8571 34.9299 97.2969 34.9299C96.9438 34.9299 96.6059 34.9967 96.2833 35.1303C95.9606 35.2638 95.6958 35.4769 95.4888 35.7694C95.2879 36.062 95.1874 36.434 95.1874 36.8856C95.1874 37.3371 95.2879 37.7092 95.4888 38.0018C95.6958 38.2879 95.9576 38.4978 96.2741 38.6314C96.5968 38.7649 96.9377 38.8317 97.2969 38.8317Z" fill="#656160"/>
<path d="M108.098 38.5074H109.002V40.4058H107.869V39.4995L102.116 39.49V40.4058H100.974V38.5074H101.431C101.76 38.0749 101.997 37.6869 102.143 37.3435C102.296 36.9937 102.396 36.6026 102.445 36.1701C102.493 35.7313 102.518 35.1048 102.518 34.2908H108.088L108.098 38.5074ZM103.568 35.2161C103.562 35.7885 103.538 36.256 103.495 36.6185C103.452 36.9746 103.373 37.299 103.258 37.5915C103.142 37.8841 102.971 38.1894 102.746 38.5074H106.947V35.2257L103.568 35.2161Z" fill="#656160"/>
<path d="M109.553 36.8951C109.553 36.3609 109.693 35.8807 109.973 35.4546C110.26 35.0222 110.649 34.6851 111.142 34.4434C111.642 34.2017 112.196 34.0809 112.804 34.0809C113.681 34.0809 114.36 34.2717 114.841 34.6533C115.322 35.0349 115.678 35.5691 115.909 36.256H114.759C114.704 36.027 114.588 35.8108 114.412 35.6073C114.235 35.4038 114.01 35.2416 113.736 35.1207C113.462 34.9999 113.161 34.9395 112.832 34.9395C112.381 34.9395 111.998 35.0253 111.681 35.1971C111.365 35.3688 111.124 35.6041 110.96 35.903C110.801 36.1956 110.722 36.5263 110.722 36.8951C110.722 37.2131 110.798 37.5248 110.951 37.83C111.103 38.1353 111.337 38.3865 111.654 38.5837C111.97 38.7745 112.363 38.8635 112.832 38.8508C113.167 38.8508 113.471 38.7904 113.745 38.6695C114.019 38.5423 114.241 38.3802 114.412 38.183C114.588 37.9795 114.701 37.7664 114.75 37.5438H115.9C115.858 37.9 115.684 38.2466 115.38 38.5837C115.081 38.9144 114.701 39.1847 114.238 39.3946C113.782 39.6044 113.304 39.7094 112.804 39.7094C112.226 39.7094 111.687 39.5885 111.188 39.3469C110.689 39.0988 110.29 38.7586 109.992 38.3261C109.7 37.8936 109.553 37.4166 109.553 36.8951Z" fill="#656160"/>
<path d="M122.631 34.2908V35.3497H120.156V39.49H119.015V35.3497H116.503V34.2908H122.631Z" fill="#656160"/>
<path d="M124.967 37.7156C124.961 37.7728 124.958 37.8523 124.958 37.9541L124.967 37.7156ZM129.049 36.7711C129.444 36.8538 129.74 36.9937 129.935 37.1909C130.135 37.3817 130.236 37.6583 130.236 38.0208V38.0399C130.236 38.3897 130.148 38.6727 129.971 38.889C129.795 39.0988 129.514 39.2546 129.131 39.3564C128.753 39.4518 128.248 39.4995 127.615 39.4995H123.816V34.2908H127.898C128.513 34.2908 128.985 34.3989 129.314 34.6151C129.648 34.8314 129.816 35.1462 129.816 35.5596V35.5977C129.816 35.903 129.752 36.151 129.624 36.3418C129.502 36.5326 129.311 36.6757 129.049 36.7711ZM128.702 35.7694C128.702 35.5659 128.65 35.4197 128.546 35.3306C128.443 35.2416 128.309 35.1875 128.145 35.1684C127.986 35.143 127.752 35.1303 127.441 35.1303H124.967V36.4468L127.304 36.4658H127.441C127.752 36.4658 127.983 36.4563 128.136 36.4372C128.294 36.4181 128.428 36.3609 128.537 36.2655C128.647 36.1638 128.702 35.9984 128.702 35.7694ZM127.597 38.6123C127.944 38.6123 128.209 38.6028 128.391 38.5837C128.58 38.5582 128.732 38.4978 128.848 38.4024C128.963 38.3007 129.021 38.1417 129.021 37.9254C129.021 37.7092 128.963 37.5534 128.848 37.458C128.732 37.3626 128.58 37.3053 128.391 37.2863C128.209 37.2608 127.944 37.2481 127.597 37.2481H124.967V38.6123H127.597Z" fill="#656160"/>
<path d="M134.412 34.0714C135.009 34.0714 135.545 34.1922 136.02 34.4339C136.5 34.6755 136.875 35.0126 137.143 35.4451C137.417 35.8712 137.554 36.3514 137.554 36.8856C137.554 37.4135 137.417 37.8936 137.143 38.3261C136.875 38.7522 136.5 39.0861 136.02 39.3278C135.545 39.5695 135.009 39.6903 134.412 39.6903C133.84 39.6903 133.301 39.5695 132.796 39.3278C132.297 39.0797 131.898 38.7427 131.6 38.3166C131.301 37.8841 131.152 37.4071 131.152 36.8856C131.152 36.3577 131.301 35.8807 131.6 35.4546C131.898 35.0222 132.297 34.6851 132.796 34.4434C133.295 34.1954 133.834 34.0714 134.412 34.0714ZM134.421 38.8317C134.981 38.8317 135.453 38.6759 135.837 38.3643C136.22 38.0463 136.412 37.5534 136.412 36.8856C136.412 36.2178 136.22 35.7249 135.837 35.4069C135.453 35.0889 134.981 34.9299 134.421 34.9299C134.068 34.9299 133.73 34.9967 133.408 35.1303C133.085 35.2638 132.82 35.4769 132.613 35.7694C132.412 36.062 132.312 36.434 132.312 36.8856C132.312 37.3371 132.412 37.7092 132.613 38.0018C132.82 38.2879 133.082 38.4978 133.399 38.6314C133.721 38.7649 134.062 38.8317 134.421 38.8317Z" fill="#656160"/>
<path d="M148.607 34.3099V39.49H147.465V35.2925H144.342C144.269 36.291 144.199 37.0001 144.132 37.4198C144.065 37.8396 143.956 38.1862 143.803 38.4597C143.627 38.7395 143.417 38.9557 143.173 39.1084C142.93 39.261 142.698 39.3659 142.479 39.4232C142.266 39.4804 142.16 39.5027 142.16 39.49V38.2975C142.482 38.2975 142.726 38.1258 142.89 37.7823C143.018 37.4325 143.106 37.1114 143.155 36.8188C143.21 36.5199 143.243 36.2083 143.255 35.8839C143.268 35.5596 143.274 35.0349 143.274 34.3099H148.607Z" fill="#656160"/>
<path d="M155.985 36.9619H150.798C150.816 37.2863 150.904 37.5915 151.062 37.8777C151.221 38.1576 151.455 38.3865 151.766 38.5646C152.076 38.7427 152.454 38.8317 152.898 38.8317C153.282 38.8317 153.619 38.7618 153.912 38.6218C154.21 38.4756 154.438 38.2975 154.597 38.0876C154.761 37.8714 154.843 37.6647 154.843 37.4675H155.985C155.985 37.7982 155.863 38.1353 155.619 38.4787C155.376 38.8222 155.02 39.1084 154.551 39.3373C154.082 39.5663 153.525 39.6808 152.88 39.6808C152.301 39.6808 151.766 39.5631 151.272 39.3278C150.779 39.0861 150.387 38.7522 150.094 38.3261C149.802 37.8936 149.656 37.4039 149.656 36.857C149.656 36.2973 149.796 35.8044 150.076 35.3783C150.362 34.9458 150.749 34.6151 151.236 34.3862C151.729 34.1509 152.277 34.0332 152.88 34.0332C153.495 34.0332 154.033 34.1477 154.496 34.3766C154.965 34.6056 155.327 34.9299 155.583 35.3497C155.845 35.7631 155.979 36.2496 155.985 36.8093V36.9619ZM152.898 34.8918C152.374 34.8918 151.951 35.0126 151.629 35.2543C151.306 35.496 151.075 35.814 150.935 36.2083H154.77C154.667 35.814 154.463 35.496 154.158 35.2543C153.86 35.0126 153.44 34.8918 152.898 34.8918Z" fill="#656160"/>
<path d="M156.897 36.8951C156.897 36.3609 157.037 35.8807 157.317 35.4546C157.604 35.0222 157.993 34.6851 158.486 34.4434C158.985 34.2017 159.54 34.0809 160.148 34.0809C161.025 34.0809 161.704 34.2717 162.185 34.6533C162.666 35.0349 163.022 35.5691 163.253 36.256H162.103C162.048 36.027 161.932 35.8108 161.756 35.6073C161.579 35.4038 161.354 35.2416 161.08 35.1207C160.806 34.9999 160.504 34.9395 160.176 34.9395C159.725 34.9395 159.342 35.0253 159.025 35.1971C158.708 35.3688 158.468 35.6041 158.304 35.903C158.145 36.1956 158.066 36.5263 158.066 36.8951C158.066 37.2131 158.142 37.5248 158.295 37.83C158.447 38.1353 158.681 38.3865 158.998 38.5837C159.314 38.7745 159.707 38.8635 160.176 38.8508C160.511 38.8508 160.815 38.7904 161.089 38.6695C161.363 38.5423 161.585 38.3802 161.756 38.183C161.932 37.9795 162.045 37.7664 162.093 37.5438H163.244C163.202 37.9 163.028 38.2466 162.724 38.5837C162.425 38.9144 162.045 39.1847 161.582 39.3946C161.125 39.6044 160.648 39.7094 160.148 39.7094C159.57 39.7094 159.031 39.5885 158.532 39.3469C158.033 39.0988 157.634 38.7586 157.336 38.3261C157.043 37.8936 156.897 37.4166 156.897 36.8951Z" fill="#656160"/>
<path d="M169.975 34.2908V35.3497H167.5V39.49H166.359V35.3497H163.847V34.2908H169.975Z" fill="#656160"/>
<path d="M176.164 36.3991V34.2908H177.278V39.49H176.164V37.3244H172.274V39.49H171.16V34.2908H172.274V36.3991H176.164Z" fill="#656160"/>
<path d="M179.605 38.2212L183.431 34.2908H184.573V39.49H183.431V35.5596L179.605 39.49H178.463V34.2908H179.605V38.2212Z" fill="#656160"/>
<path d="M192.151 34.2908V38.4024H193V40.568H191.858V39.49H185.758V34.2908H186.9V38.4024H191.009V34.2908H192.151Z" fill="#656160"/>
</g>
</g>
</g>
</svg>
