<svg width="193" height="42" viewBox="0 0 193 42" fill="none" xmlns="http://www.w3.org/2000/svg">
<g id="Frame 3474724">
<g id="Group 3473646">
<g id="Group">
<path id="Vector" d="M162.205 28.5391C161.35 28.1956 161.159 27.9218 161.159 26.9936C161.158 20.0533 161.158 13.1131 161.159 6.17288C161.159 5.44239 161.481 4.98358 162.062 4.86412C162.832 4.70555 163.435 5.1189 163.549 5.89908C163.577 6.08937 163.57 6.286 163.57 6.47946C163.57 10.1076 163.57 13.7368 163.57 17.365V17.9179C163.606 17.9263 163.643 17.9359 163.679 17.9443C163.821 17.754 163.968 17.5669 164.105 17.3724C166.763 13.6184 169.421 9.86236 172.079 6.1084C172.243 5.87794 172.4 5.64325 172.577 5.42442C172.963 4.94447 173.592 4.82924 174.095 5.13476C174.608 5.44662 174.793 6.03334 174.527 6.60632C174.402 6.87484 174.225 7.12221 174.053 7.36536C171.184 11.4238 168.31 15.4801 165.44 19.5385C165.309 19.7246 165.189 19.9201 165.053 20.1284C165.101 20.1855 165.135 20.2489 165.187 20.2849C168.06 22.2417 170.933 24.1985 173.809 26.151C174.978 26.9449 174.967 27.7864 173.77 28.5381H173.346C172.94 28.2992 172.517 28.0803 172.128 27.816C169.418 25.9787 166.714 24.1319 164.008 22.2903C163.889 22.2089 163.755 22.1497 163.572 22.0482C163.572 23.7196 163.553 25.3 163.579 26.8805C163.593 27.6892 163.352 28.2865 162.523 28.5381H162.205V28.5391Z" fill="#C01025"/>
<path id="Vector_2" d="M60.7928 8.60857C60.2548 9.96384 59.7646 11.1849 59.285 12.4101C57.425 17.1599 55.5713 21.9108 53.7081 26.6595C53.567 27.0179 53.4025 27.3741 53.1956 27.6976C52.7882 28.334 52.0263 28.5328 51.3876 28.2114C50.7786 27.9048 50.5165 27.2653 50.7987 26.5453C51.6274 24.4342 52.4911 22.3357 53.341 20.232C55.1469 15.7634 56.9518 11.2948 58.7577 6.8262C58.8298 6.64648 58.9062 6.46888 58.9858 6.29234C59.3508 5.47621 59.9514 5.02798 60.8808 5.02692C61.787 5.02692 62.3313 5.51321 62.6592 6.28282C63.1197 7.36746 63.5494 8.46585 63.9887 9.55895C66.1468 14.9282 68.304 20.2975 70.46 25.6679C70.5778 25.9618 70.6924 26.2578 70.7815 26.5612C71.0075 27.3276 70.7019 28.0201 70.043 28.2696C69.313 28.5465 68.5236 28.2072 68.218 27.4513C67.6907 26.1468 67.1877 24.8327 66.6742 23.5229C64.7717 18.6759 62.8693 13.8288 60.9657 8.9828C60.9339 8.90246 60.8936 8.82528 60.7928 8.60857Z" fill="#C01025"/>
<path id="Vector_3" d="M76.0496 23.7481C76.3043 24.0325 76.5027 24.3021 76.7467 24.5188C79.4598 26.927 83.338 26.4925 85.476 23.5557C85.6373 23.3337 85.8368 23.1096 86.0702 22.9753C86.466 22.748 87.0835 22.8897 87.3859 23.229C87.7477 23.6329 87.6766 24.097 87.4549 24.5114C86.9541 25.4438 86.2156 26.1732 85.3551 26.7843C81.3496 29.6322 75.6645 28.2907 73.5487 23.8697C71.0839 18.7203 74.2289 13.3119 79.4535 12.4778C82.4807 11.9946 84.9794 13.0222 86.9381 15.3522C87.6416 16.1884 87.578 16.8248 86.6442 17.4179C85.1407 18.3725 83.5905 19.2541 82.0573 20.1633C80.2355 21.2427 78.4115 22.3178 76.5897 23.3971C76.4263 23.4944 76.2703 23.6043 76.0486 23.7481H76.0496ZM84.6229 16.1387C82.7438 14.1502 79.2328 14.0402 77.0778 15.8078C75.291 17.273 74.2681 20.399 75.1965 21.675C78.3192 19.8409 81.4451 18.0056 84.6229 16.1398V16.1387Z" fill="#C01025"/>
<path id="Vector_4" d="M110.686 23.727C111.536 24.8676 112.62 25.5738 113.947 25.8973C116.294 26.4692 118.596 25.6055 120.014 23.6413C120.31 23.2312 120.606 22.839 121.188 22.8675C121.965 22.9056 122.446 23.5758 122.138 24.3222C121.935 24.8137 121.602 25.2747 121.243 25.6743C118.588 28.6311 113.844 29.1142 110.626 26.7769C106.937 24.098 106.229 18.8651 109.081 15.3585C112.044 11.7166 117.255 11.3212 120.751 14.48C121.063 14.7623 121.364 15.0699 121.614 15.4061C122.239 16.2476 122.121 16.8829 121.221 17.4295C119.049 18.7488 116.866 20.0502 114.685 21.3537C113.369 22.1402 112.048 22.9182 110.686 23.7259V23.727ZM109.771 21.7268C112.925 19.8631 116.064 18.0088 119.227 16.1398C117.65 14.4346 114.554 13.9948 112.296 15.3871C109.848 16.8977 109.075 19.7891 109.771 21.7268Z" fill="#C01025"/>
<path id="Vector_5" d="M136.315 21.4826H127.43C127.421 21.6888 127.404 21.8917 127.404 22.0947C127.398 23.7682 127.41 25.4417 127.388 27.1152C127.376 28.0169 126.477 28.5687 125.663 28.1945C125.157 27.9619 124.972 27.5359 124.973 26.9925C124.979 24.1213 124.976 21.2501 124.976 18.3788C124.976 16.8988 124.974 15.4198 124.976 13.9398C124.978 13.1099 125.462 12.5983 126.217 12.6152C126.943 12.6311 127.397 13.1353 127.399 13.9504C127.405 15.5361 127.401 17.1208 127.401 18.7065C127.401 18.8947 127.401 19.0839 127.401 19.307H136.288C136.297 19.1009 136.313 18.9137 136.314 18.7256C136.317 17.1049 136.303 15.4843 136.324 13.8637C136.337 12.8943 137.206 12.3414 138.047 12.7357C138.563 12.9767 138.72 13.4239 138.72 13.9525C138.72 15.1154 138.72 16.2782 138.72 17.4401C138.72 20.6105 138.724 23.7819 138.718 26.9524C138.715 27.9863 137.947 28.5571 137.041 28.2209C136.457 28.0053 136.337 27.5105 136.33 26.983C136.313 25.3804 136.319 23.7767 136.315 22.174C136.315 21.9647 136.315 21.7554 136.315 21.4816V21.4826Z" fill="#C01025"/>
<path id="Vector_6" d="M184.959 28.4588C180.535 28.4514 177.028 24.9173 177.033 20.473C177.038 16.0689 180.611 12.5327 185.036 12.5518C189.467 12.5708 193.013 16.1207 193 20.5248C192.986 24.9744 189.446 28.4672 184.959 28.4598V28.4588ZM184.979 26.3551C188.257 26.3625 190.882 23.7555 190.891 20.5026C190.898 17.4823 188.458 14.6386 185.032 14.628C181.667 14.6174 179.153 17.2371 179.101 20.472C179.049 23.6974 181.72 26.3477 184.979 26.3551Z" fill="#C01025"/>
<path id="Vector_7" d="M97.953 28.2484C93.4 28.2389 89.8391 25.0865 89.5367 21.2363C89.1833 16.7497 91.9856 13.0835 96.302 12.4683C99.3769 12.0295 101.888 13.0941 103.831 15.4949C104.272 16.0393 104.286 16.5594 103.929 16.9876C103.583 17.402 103.047 17.5479 102.598 17.3016C102.389 17.1874 102.21 16.9992 102.054 16.8142C100.495 14.9557 98.51 14.1851 96.147 14.738C93.7809 15.2919 92.3389 16.8745 91.8073 19.2288C91.0911 22.4024 93.5443 25.7187 96.7932 26.0168C99.1063 26.2293 100.93 25.3782 102.282 23.506C102.775 22.822 103.372 22.6635 103.951 23.0673C104.484 23.4384 104.563 24.1012 104.108 24.7514C102.495 27.0538 100.267 28.2072 97.953 28.2484Z" fill="#C01025"/>
<path id="Vector_8" d="M149.94 21.7596C148.669 21.7596 147.397 21.7649 146.126 21.7554C145.81 21.7533 145.491 21.7194 145.179 21.6676C144.505 21.5556 144.129 21.0693 144.182 20.4064C144.231 19.7891 144.683 19.3556 145.35 19.3482C147.293 19.3271 149.235 19.3218 151.177 19.3186C152.27 19.3165 153.364 19.3059 154.456 19.3482C155.244 19.3789 155.683 19.8292 155.695 20.5079C155.708 21.2056 155.266 21.6708 154.441 21.6898C152.942 21.7237 151.441 21.6993 149.94 21.6993V21.7607V21.7596Z" fill="#C01025"/>
</g>
<g id="Group 1">
<g id="Group_2">
<path id="Vector_9" d="M34.9806 41.3631C34.573 41.4315 34.1644 41.2254 33.7517 41.069C23.1405 37.0333 12.5303 32.9976 1.92429 28.9504C0.0959517 28.2524 -0.430875 27.1029 0.350032 25.6955C0.62589 25.1984 1.03657 24.925 1.55717 24.7127C6.41995 22.7347 11.2744 20.736 16.131 18.7435C17.0913 18.35 18.0423 18.4121 18.9881 18.7912C25.9758 21.5883 32.9687 24.3741 39.9471 27.192C41.4425 27.7957 41.8978 28.9556 41.2787 30.4293C39.9678 33.5485 38.6321 36.6563 37.2901 39.7611C36.8701 40.7325 36.1701 41.36 34.9806 41.3642V41.3631Z" fill="#C01025"/>
<path id="Vector_10" d="M32.1587 8.45379C32.4647 8.55631 32.8069 8.65055 33.1325 8.78415C37.3803 10.5271 41.6292 12.2689 45.8708 14.0274C47.5062 14.7057 47.6701 15.1396 46.9804 16.7883C46.2949 18.4287 45.6022 20.066 44.898 21.6981C44.4604 22.712 43.7998 23.0889 42.6611 22.6488C35.9741 20.0629 29.2736 17.5132 22.5701 14.9698C21.9344 14.7285 21.4366 14.4323 21.392 13.695C21.3463 12.9379 21.8618 12.5662 22.456 12.3176C25.4096 11.0821 28.3693 9.86324 31.3322 8.64952C31.5749 8.5501 31.8476 8.52525 32.1587 8.45379Z" fill="#C01025"/>
<path id="Vector_11" d="M48.4437 10.5944C48.2332 10.5198 47.8536 10.4007 47.4855 10.2547C44.0549 8.89911 40.6284 7.53418 37.1958 6.18376C36.5476 5.929 35.9306 5.6411 35.887 4.8499C35.8403 3.98828 36.4522 3.63514 37.1553 3.3545C39.7106 2.33546 42.2597 1.29883 44.8088 0.26426C45.6737 -0.0868085 46.5086 -0.0940577 47.3901 0.278759C48.6574 0.814165 49.9641 1.25326 51.2448 1.7576C52.6231 2.30025 52.901 2.8978 52.3535 4.21715C51.6389 5.93936 50.8902 7.64706 50.1455 9.35684C49.8552 10.0238 49.5223 10.6638 48.4448 10.5944H48.4437Z" fill="#C01025"/>
</g>
</g>
<g id="&#208;&#191;&#209;&#128;&#208;&#190;&#208;&#184;&#208;&#183;&#208;&#178;&#208;&#190;&#208;&#180;&#209;&#129;&#209;&#130;&#208;&#178;&#208;&#190; &#208;&#187;&#208;&#181;&#209;&#129;&#209;&#130;&#208;&#189;&#208;&#184;&#209;&#134;">
<path d="M50.5214 34.2905H56.7313V39.4896H55.5897V35.3494H51.6629V39.4896H50.5214V34.2905Z" fill="#656160"/>
<path d="M63.8866 37.0093C63.8744 37.4672 63.7709 37.8997 63.5761 38.3067C63.3813 38.7074 63.1012 39.0349 62.736 39.2893C62.3768 39.5373 61.9536 39.6614 61.4666 39.6614C60.4133 39.6614 59.6097 39.3879 59.0557 38.8409V41.3022H57.9142V34.2905H58.8639L59.01 35.0536C59.5823 34.4685 60.4012 34.176 61.4666 34.176C61.9354 34.176 62.3494 34.2968 62.7086 34.5385C63.0738 34.7802 63.36 35.1109 63.567 35.5306C63.774 35.9504 63.8805 36.421 63.8866 36.9425V37.0093ZM60.8273 38.8219C61.2231 38.8219 61.5579 38.7265 61.8319 38.5357C62.1119 38.3385 62.322 38.0968 62.462 37.8106C62.6081 37.5181 62.6842 37.2351 62.6903 36.9616C62.6842 36.6372 62.6142 36.3288 62.4803 36.0362C62.3524 35.7373 62.1485 35.4925 61.8684 35.3017C61.5944 35.1045 61.2474 35.0059 60.8273 35.0059C60.4803 35.0059 60.1729 35.0982 59.905 35.2826C59.6371 35.4607 59.4271 35.696 59.2749 35.9885C59.1287 36.2747 59.0557 36.5768 59.0557 36.8948C59.0557 37.2446 59.1287 37.5658 59.2749 37.8583C59.421 38.1509 59.628 38.3862 59.8959 38.5643C60.1698 38.736 60.4803 38.8219 60.8273 38.8219Z" fill="#656160"/>
<path d="M68.1091 34.071C68.7057 34.071 69.2415 34.1919 69.7164 34.4336C70.1973 34.6752 70.5717 35.0123 70.8396 35.4448C71.1136 35.8709 71.2506 36.3511 71.2506 36.8853C71.2506 37.4131 71.1136 37.8933 70.8396 38.3258C70.5717 38.7519 70.1973 39.0858 69.7164 39.3275C69.2415 39.5691 68.7057 39.69 68.1091 39.69C67.5368 39.69 66.998 39.5691 66.4927 39.3275C65.9935 39.0794 65.5947 38.7424 65.2964 38.3162C64.9981 37.8838 64.8489 37.4068 64.8489 36.8853C64.8489 36.3574 64.9981 35.8804 65.2964 35.4543C65.5947 35.0218 65.9935 34.6848 66.4927 34.4431C66.9919 34.1951 67.5307 34.071 68.1091 34.071ZM68.1182 38.8314C68.6783 38.8314 69.1502 38.6756 69.5337 38.3639C69.9173 38.046 70.109 37.5531 70.109 36.8853C70.109 36.2175 69.9173 35.7246 69.5337 35.4066C69.1502 35.0886 68.6783 34.9296 68.1182 34.9296C67.7651 34.9296 67.4272 34.9964 67.1046 35.13C66.7819 35.2635 66.5171 35.4766 66.3101 35.7691C66.1092 36.0617 66.0087 36.4337 66.0087 36.8853C66.0087 37.3368 66.1092 37.7089 66.3101 38.0014C66.5171 38.2876 66.7788 38.4975 67.0954 38.6311C67.4181 38.7646 67.759 38.8314 68.1182 38.8314Z" fill="#656160"/>
<path d="M73.4399 38.2208L77.2663 34.2905H78.4078V39.4896H77.2663V35.5592L73.4399 39.4896H72.2984V34.2905H73.4399V38.2208Z" fill="#656160"/>
<path d="M85.6386 37.8202C85.6325 38.4689 85.3494 38.9459 84.7893 39.2511C84.2292 39.5501 83.4986 39.6995 82.5976 39.6995C81.9401 39.6995 81.3739 39.6105 80.899 39.4324C80.4302 39.248 80.071 38.9904 79.8214 38.6597C79.5779 38.329 79.4561 37.9474 79.4561 37.5149H80.5976C80.5976 37.9219 80.7894 38.224 81.173 38.4212C81.5626 38.6183 82.0375 38.7201 82.5976 38.7265C83.1151 38.7328 83.5565 38.6629 83.9217 38.5166C84.287 38.3703 84.4697 38.135 84.4697 37.8106C84.4697 37.658 84.4423 37.5499 84.3875 37.4863C84.3388 37.4163 84.2079 37.3654 83.9948 37.3336C83.7878 37.2955 83.4438 37.2764 82.9629 37.2764H81.7209V36.3987H82.9629C83.4195 36.3987 83.7665 36.3574 84.0039 36.2747C84.2475 36.1921 84.3692 36.0331 84.3692 35.7977C84.3692 35.5815 84.1957 35.4225 83.8487 35.3208C83.5078 35.2126 83.0907 35.1586 82.5976 35.1586C82.0375 35.1459 81.5626 35.1999 81.173 35.3208C80.7894 35.4416 80.5976 35.6419 80.5976 35.9218H79.4561C79.4561 35.2476 79.7818 34.7897 80.4333 34.548C81.0847 34.3064 81.8061 34.1855 82.5976 34.1855C83.389 34.1855 84.0709 34.2841 84.6432 34.4813C85.2216 34.6784 85.5107 35.0982 85.5107 35.7405C85.5107 36.2429 85.3372 36.5927 84.9902 36.7899C85.4225 36.987 85.6386 37.3273 85.6386 37.8106V37.8202Z" fill="#656160"/>
<path d="M87.8422 37.7152C87.8361 37.7725 87.8331 37.852 87.8331 37.9537L87.8422 37.7152ZM91.9243 36.7708C92.32 36.8535 92.6153 36.9934 92.8101 37.1906C93.011 37.3813 93.1115 37.658 93.1115 38.0205V38.0396C93.1115 38.3894 93.0232 38.6724 92.8467 38.8886C92.6701 39.0985 92.39 39.2543 92.0065 39.3561C91.629 39.4515 91.1237 39.4992 90.4906 39.4992H86.6916V34.2905H90.7737C91.3885 34.2905 91.8604 34.3986 92.1891 34.6148C92.524 34.831 92.6914 35.1459 92.6914 35.5592V35.5974C92.6914 35.9027 92.6275 36.1507 92.4996 36.3415C92.3779 36.5323 92.1861 36.6754 91.9243 36.7708ZM91.5773 35.7691C91.5773 35.5656 91.5255 35.4193 91.422 35.3303C91.3185 35.2413 91.1846 35.1872 91.0202 35.1681C90.8619 35.1427 90.6275 35.13 90.317 35.13H87.8422V36.4464L90.1801 36.4655H90.317C90.6275 36.4655 90.8589 36.456 91.0111 36.4369C91.1694 36.4178 91.3033 36.3606 91.4129 36.2652C91.5225 36.1634 91.5773 35.9981 91.5773 35.7691ZM90.4723 38.612C90.8193 38.612 91.0841 38.6024 91.2668 38.5834C91.4555 38.5579 91.6077 38.4975 91.7234 38.4021C91.8391 38.3003 91.8969 38.1413 91.8969 37.9251C91.8969 37.7089 91.8391 37.5531 91.7234 37.4577C91.6077 37.3623 91.4555 37.305 91.2668 37.2859C91.0841 37.2605 90.8193 37.2478 90.4723 37.2478H87.8422V38.612H90.4723Z" fill="#656160"/>
<path d="M97.2878 34.071C97.8844 34.071 98.4202 34.1919 98.8951 34.4336C99.376 34.6752 99.7505 35.0123 100.018 35.4448C100.292 35.8709 100.429 36.3511 100.429 36.8853C100.429 37.4131 100.292 37.8933 100.018 38.3258C99.7505 38.7519 99.376 39.0858 98.8951 39.3275C98.4202 39.5691 97.8844 39.69 97.2878 39.69C96.7155 39.69 96.1767 39.5691 95.6714 39.3275C95.1722 39.0794 94.7734 38.7424 94.4751 38.3162C94.1768 37.8838 94.0276 37.4068 94.0276 36.8853C94.0276 36.3574 94.1768 35.8804 94.4751 35.4543C94.7734 35.0218 95.1722 34.6848 95.6714 34.4431C96.1706 34.1951 96.7094 34.071 97.2878 34.071ZM97.2969 38.8314C97.8571 38.8314 98.3289 38.6756 98.7124 38.3639C99.096 38.046 99.2878 37.5531 99.2878 36.8853C99.2878 36.2175 99.096 35.7246 98.7124 35.4066C98.3289 35.0886 97.8571 34.9296 97.2969 34.9296C96.9438 34.9296 96.6059 34.9964 96.2833 35.13C95.9606 35.2635 95.6958 35.4766 95.4888 35.7691C95.2879 36.0617 95.1874 36.4337 95.1874 36.8853C95.1874 37.3368 95.2879 37.7089 95.4888 38.0014C95.6958 38.2876 95.9576 38.4975 96.2741 38.6311C96.5968 38.7646 96.9377 38.8314 97.2969 38.8314Z" fill="#656160"/>
<path d="M108.098 38.507H109.002V40.4055H107.869V39.4992L102.116 39.4896V40.4055H100.974V38.507H101.431C101.76 38.0746 101.997 37.6866 102.143 37.3432C102.296 36.9934 102.396 36.6023 102.445 36.1698C102.493 35.731 102.518 35.1045 102.518 34.2905H108.088L108.098 38.507ZM103.568 35.2158C103.562 35.7882 103.538 36.2557 103.495 36.6182C103.452 36.9743 103.373 37.2987 103.258 37.5912C103.142 37.8838 102.971 38.189 102.746 38.507H106.947V35.2254L103.568 35.2158Z" fill="#656160"/>
<path d="M109.553 36.8948C109.553 36.3606 109.693 35.8804 109.973 35.4543C110.26 35.0218 110.649 34.6848 111.142 34.4431C111.642 34.2014 112.196 34.0806 112.804 34.0806C113.681 34.0806 114.36 34.2714 114.841 34.653C115.322 35.0346 115.678 35.5688 115.909 36.2557H114.759C114.704 36.0267 114.588 35.8105 114.412 35.6069C114.235 35.4034 114.01 35.2413 113.736 35.1204C113.462 34.9996 113.161 34.9392 112.832 34.9392C112.381 34.9392 111.998 35.025 111.681 35.1967C111.365 35.3685 111.124 35.6038 110.96 35.9027C110.801 36.1952 110.722 36.5259 110.722 36.8948C110.722 37.2128 110.798 37.5244 110.951 37.8297C111.103 38.135 111.337 38.3862 111.654 38.5834C111.97 38.7742 112.363 38.8632 112.832 38.8505C113.167 38.8505 113.471 38.7901 113.745 38.6692C114.019 38.542 114.241 38.3798 114.412 38.1827C114.588 37.9792 114.701 37.7661 114.75 37.5435H115.9C115.858 37.8997 115.684 38.2463 115.38 38.5834C115.081 38.9141 114.701 39.1844 114.238 39.3942C113.782 39.6041 113.304 39.7091 112.804 39.7091C112.226 39.7091 111.687 39.5882 111.188 39.3465C110.689 39.0985 110.29 38.7583 109.992 38.3258C109.7 37.8933 109.553 37.4163 109.553 36.8948Z" fill="#656160"/>
<path d="M122.631 34.2905V35.3494H120.156V39.4896H119.015V35.3494H116.503V34.2905H122.631Z" fill="#656160"/>
<path d="M124.967 37.7152C124.961 37.7725 124.958 37.852 124.958 37.9537L124.967 37.7152ZM129.049 36.7708C129.444 36.8535 129.74 36.9934 129.935 37.1906C130.135 37.3813 130.236 37.658 130.236 38.0205V38.0396C130.236 38.3894 130.148 38.6724 129.971 38.8886C129.795 39.0985 129.514 39.2543 129.131 39.3561C128.753 39.4515 128.248 39.4992 127.615 39.4992H123.816V34.2905H127.898C128.513 34.2905 128.985 34.3986 129.314 34.6148C129.648 34.831 129.816 35.1459 129.816 35.5592V35.5974C129.816 35.9027 129.752 36.1507 129.624 36.3415C129.502 36.5323 129.311 36.6754 129.049 36.7708ZM128.702 35.7691C128.702 35.5656 128.65 35.4193 128.546 35.3303C128.443 35.2413 128.309 35.1872 128.145 35.1681C127.986 35.1427 127.752 35.13 127.441 35.13H124.967V36.4464L127.304 36.4655H127.441C127.752 36.4655 127.983 36.456 128.136 36.4369C128.294 36.4178 128.428 36.3606 128.537 36.2652C128.647 36.1634 128.702 35.9981 128.702 35.7691ZM127.597 38.612C127.944 38.612 128.209 38.6024 128.391 38.5834C128.58 38.5579 128.732 38.4975 128.848 38.4021C128.963 38.3003 129.021 38.1413 129.021 37.9251C129.021 37.7089 128.963 37.5531 128.848 37.4577C128.732 37.3623 128.58 37.305 128.391 37.2859C128.209 37.2605 127.944 37.2478 127.597 37.2478H124.967V38.612H127.597Z" fill="#656160"/>
<path d="M134.412 34.071C135.009 34.071 135.545 34.1919 136.02 34.4336C136.5 34.6752 136.875 35.0123 137.143 35.4448C137.417 35.8709 137.554 36.3511 137.554 36.8853C137.554 37.4131 137.417 37.8933 137.143 38.3258C136.875 38.7519 136.5 39.0858 136.02 39.3275C135.545 39.5691 135.009 39.69 134.412 39.69C133.84 39.69 133.301 39.5691 132.796 39.3275C132.297 39.0794 131.898 38.7424 131.6 38.3162C131.301 37.8838 131.152 37.4068 131.152 36.8853C131.152 36.3574 131.301 35.8804 131.6 35.4543C131.898 35.0218 132.297 34.6848 132.796 34.4431C133.295 34.1951 133.834 34.071 134.412 34.071ZM134.421 38.8314C134.981 38.8314 135.453 38.6756 135.837 38.3639C136.22 38.046 136.412 37.5531 136.412 36.8853C136.412 36.2175 136.22 35.7246 135.837 35.4066C135.453 35.0886 134.981 34.9296 134.421 34.9296C134.068 34.9296 133.73 34.9964 133.408 35.13C133.085 35.2635 132.82 35.4766 132.613 35.7691C132.412 36.0617 132.312 36.4337 132.312 36.8853C132.312 37.3368 132.412 37.7089 132.613 38.0014C132.82 38.2876 133.082 38.4975 133.399 38.6311C133.721 38.7646 134.062 38.8314 134.421 38.8314Z" fill="#656160"/>
<path d="M148.607 34.3095V39.4896H147.465V35.2921H144.342C144.269 36.2906 144.199 36.9998 144.132 37.4195C144.065 37.8393 143.956 38.1859 143.803 38.4593C143.627 38.7392 143.417 38.9554 143.173 39.108C142.93 39.2607 142.698 39.3656 142.479 39.4229C142.266 39.4801 142.16 39.5024 142.16 39.4896V38.2972C142.482 38.2972 142.726 38.1255 142.89 37.782C143.018 37.4322 143.106 37.1111 143.155 36.8185C143.21 36.5196 143.243 36.208 143.255 35.8836C143.268 35.5592 143.274 35.0346 143.274 34.3095H148.607Z" fill="#656160"/>
<path d="M155.985 36.9616H150.798C150.816 37.2859 150.904 37.5912 151.062 37.8774C151.221 38.1572 151.455 38.3862 151.766 38.5643C152.076 38.7424 152.454 38.8314 152.898 38.8314C153.282 38.8314 153.619 38.7614 153.912 38.6215C154.21 38.4752 154.438 38.2972 154.597 38.0873C154.761 37.8711 154.843 37.6644 154.843 37.4672H155.985C155.985 37.7979 155.863 38.135 155.619 38.4784C155.376 38.8219 155.02 39.108 154.551 39.337C154.082 39.566 153.525 39.6804 152.88 39.6804C152.301 39.6804 151.766 39.5628 151.272 39.3275C150.779 39.0858 150.387 38.7519 150.094 38.3258C149.802 37.8933 149.656 37.4036 149.656 36.8567C149.656 36.297 149.796 35.8041 150.076 35.378C150.362 34.9455 150.749 34.6148 151.236 34.3859C151.729 34.1505 152.277 34.0329 152.88 34.0329C153.495 34.0329 154.033 34.1474 154.496 34.3763C154.965 34.6053 155.327 34.9296 155.583 35.3494C155.845 35.7628 155.979 36.2493 155.985 36.809V36.9616ZM152.898 34.8915C152.374 34.8915 151.951 35.0123 151.629 35.254C151.306 35.4956 151.075 35.8136 150.935 36.208H154.77C154.667 35.8136 154.463 35.4956 154.158 35.254C153.86 35.0123 153.44 34.8915 152.898 34.8915Z" fill="#656160"/>
<path d="M156.897 36.8948C156.897 36.3606 157.037 35.8804 157.317 35.4543C157.604 35.0218 157.993 34.6848 158.486 34.4431C158.985 34.2014 159.54 34.0806 160.148 34.0806C161.025 34.0806 161.704 34.2714 162.185 34.653C162.666 35.0346 163.022 35.5688 163.253 36.2557H162.103C162.048 36.0267 161.932 35.8105 161.756 35.6069C161.579 35.4034 161.354 35.2413 161.08 35.1204C160.806 34.9996 160.504 34.9392 160.176 34.9392C159.725 34.9392 159.342 35.025 159.025 35.1967C158.708 35.3685 158.468 35.6038 158.304 35.9027C158.145 36.1952 158.066 36.5259 158.066 36.8948C158.066 37.2128 158.142 37.5244 158.295 37.8297C158.447 38.135 158.681 38.3862 158.998 38.5834C159.314 38.7742 159.707 38.8632 160.176 38.8505C160.511 38.8505 160.815 38.7901 161.089 38.6692C161.363 38.542 161.585 38.3798 161.756 38.1827C161.932 37.9792 162.045 37.7661 162.093 37.5435H163.244C163.202 37.8997 163.028 38.2463 162.724 38.5834C162.425 38.9141 162.045 39.1844 161.582 39.3942C161.125 39.6041 160.648 39.7091 160.148 39.7091C159.57 39.7091 159.031 39.5882 158.532 39.3465C158.033 39.0985 157.634 38.7583 157.336 38.3258C157.043 37.8933 156.897 37.4163 156.897 36.8948Z" fill="#656160"/>
<path d="M169.975 34.2905V35.3494H167.5V39.4896H166.359V35.3494H163.847V34.2905H169.975Z" fill="#656160"/>
<path d="M176.164 36.3987V34.2905H177.278V39.4896H176.164V37.3241H172.274V39.4896H171.16V34.2905H172.274V36.3987H176.164Z" fill="#656160"/>
<path d="M179.605 38.2208L183.431 34.2905H184.573V39.4896H183.431V35.5592L179.605 39.4896H178.463V34.2905H179.605V38.2208Z" fill="#656160"/>
<path d="M192.151 34.2905V38.4021H193V40.5676H191.858V39.4896H185.758V34.2905H186.9V38.4021H191.009V34.2905H192.151Z" fill="#656160"/>
</g>
</g>
</g>
</svg>
